<?xml version="1.0" encoding="UTF-8" standalone="no"?>
<!-- Created with Inkscape (http://www.inkscape.org/) -->

<svg
   width="321.32913mm"
   height="98.978683mm"
   viewBox="0 0 321.32913 98.978683"
   version="1.1"
   id="svg1"
   xml:space="preserve"
   xmlns:inkscape="http://www.inkscape.org/namespaces/inkscape"
   xmlns:sodipodi="http://sodipodi.sourceforge.net/DTD/sodipodi-0.dtd"
   xmlns="http://www.w3.org/2000/svg"
   xmlns:svg="http://www.w3.org/2000/svg"><sodipodi:namedview
     id="namedview1"
     pagecolor="#ffffff"
     bordercolor="#666666"
     borderopacity="1.0"
     inkscape:showpageshadow="2"
     inkscape:pageopacity="0.0"
     inkscape:pagecheckerboard="0"
     inkscape:deskcolor="#d1d1d1"
     inkscape:document-units="mm"
     inkscape:zoom="0.52724989"
     inkscape:cx="-437.17411"
     inkscape:cy="1459.4598"
     inkscape:window-width="1920"
     inkscape:window-height="1057"
     inkscape:window-x="-8"
     inkscape:window-y="-8"
     inkscape:window-maximized="1"
     inkscape:current-layer="layer1" /><defs
     id="defs1" /><g
     inkscape:label="Layer 1"
     inkscape:groupmode="layer"
     id="layer1"
     transform="translate(78.051546,-318.01681)"><ellipse
       style="fill:#ffffff;fill-rule:evenodd;stroke:#ffffff;stroke-width:4.54268;stroke-linecap:round;stroke-linejoin:round;stroke-dasharray:none;paint-order:stroke fill markers"
       id="path3"
       cx="-36.60704"
       cy="367.50613"
       rx="37.878437"
       ry="45.650299" /><g
       id="g2"
       transform="translate(-35.129033,318.49678)"
       style="fill:#ffffff;stroke:#ffffff;stroke-width:4;stroke-linecap:round;stroke-linejoin:round;stroke-dasharray:none"><path
         style="fill:#ffffff;stroke:#ffffff;stroke-width:4;stroke-linecap:round;stroke-linejoin:round;stroke-dasharray:none"
         d="m -8.0029251,95.922584 c -10.0154519,-2.105651 -19.3184929,-9.022747 -25.2557329,-18.778413 -8.04084,-13.212155 -9.880318,-30.303082 -4.89281,-45.459999 5.341918,-16.233962 17.596048,-27.6673136 31.9355619,-29.7965266 18.0815241,-2.68484806 35.1700861,9.4803996 41.8552741,29.7965266 4.438491,13.488468 3.525172,28.394206 -2.518079,41.096071 -5.75248,12.090716 -16.179561,20.790537 -27.7424924,23.146913 -3.5363506,0.720662 -9.9425835,0.718474 -13.3817217,-0.0046 z m 11.59965,-1.44522 c 15.9830541,-2.409096 29.1379321,-16.989815 32.5850581,-36.116913 0.601015,-3.334857 0.834173,-12.090806 0.413722,-15.536813 -2.493585,-20.437381 -15.558286,-36.1504879 -32.516193,-39.1076995 -2.8678241,-0.5001066 -7.8181712,-0.4974436 -10.7037437,0.00576 -16.9117473,2.949162 -29.9931333,18.6892905 -32.4806993,39.0822785 -0.423306,3.470254 -0.193538,12.259052 0.406699,15.556476 3.595688,19.753069 17.013587,34.145435 33.8705069,36.330334 1.9345319,0.250743 6.0342075,0.146886 8.42465,-0.213421 z m -9.615275,-1.31219 c -14.4568179,-2.38965 -26.1626929,-14.368578 -30.5628059,-31.27572 -1.38724,-5.33038 -1.895964,-13.575376 -1.189082,-19.271712 2.710328,-21.840908 18.219831,-37.96771 36.5143879,-37.96771 18.2956791,0 33.7907271,16.111157 36.5157811,37.96771 0.421546,3.381051 0.360418,10.330651 -0.120719,13.724245 -1.071743,7.559322 -3.675324,14.517112 -7.685733,20.539298 -5.615457,8.432386 -12.858682,13.676564 -21.9624541,15.901069 -2.8372657,0.693285 -8.4930497,0.881405 -11.509375,0.38282 z m 5.55624999,-5.980754 c 0,-1.361013 0.0961671,-2.072847 0.26586753,-1.967966 0.14622713,0.09037 0.75065131,0.878191 1.34316488,1.750706 0.5925135,0.872514 1.2081931,1.542758 1.3681768,1.48943 0.1599838,-0.05333 0.5207417,-0.953181 0.8016844,-1.999674 0.4801265,-1.78844 0.8627278,-2.332198 1.1060873,-1.571985 0.05823,0.181901 0.2959445,1.015338 0.5282539,1.852083 0.3317718,1.194994 0.5343118,1.521354 0.9441563,1.521354 0.6626583,0 0.658121,-0.08952 -0.1560003,-3.077889 -0.3727768,-1.368339 -0.6028784,-2.72387 -0.511337,-3.012292 0.18303,-0.576676 -0.1497943,-0.676063 -0.9069689,-0.270836 -0.3121343,0.16705 -0.684231,1.069813 -1.0905474,2.645834 -0.3409559,1.3225 -0.7571269,2.392267 -0.9306633,2.392267 -0.1726501,0 -0.9392435,-0.9525 -1.70354088,-2.116667 -1.04177231,-1.586813 -1.53582216,-2.116667 -1.97363522,-2.116667 -0.759651,0 -1.0036206,0.262119 -0.6455476,0.693571 0.1576536,0.18996 0.342368,1.332009 0.4104764,2.537885 0.1602946,2.838054 0.2825068,3.383128 0.75853894,3.383128 0.31364292,0 0.39183415,-0.425501 0.39183415,-2.132282 z m -5.17551809,-1.161615 c 0.9587147,-1.37508 1.860564,-2.572732 2.0041095,-2.661448 0.4842318,-0.299272 0.2655633,-0.659239 -0.4004664,-0.659239 -0.4527717,0 -0.6614583,0.145619 -0.6614583,0.461556 0,0.611978 -2.1709965,3.797389 -2.5118274,3.685498 -0.1464637,-0.04808 -0.4075149,-1.073733 -0.5801138,-2.279223 -0.3913959,-2.733645 -0.4669718,-2.926164 -1.1487032,-2.926164 -0.304197,0 -0.4880462,0.105236 -0.4085537,0.233857 0.079492,0.128622 0.3304188,1.527606 0.557614,3.108854 0.2271952,1.581249 0.4631021,3.023826 0.5242376,3.205727 0.2615818,0.778304 0.9892502,0.176963 2.6251617,-2.169418 z m -7.8577438,0.05275 c 0.143385,-0.181901 0.830847,-1.443647 1.527694,-2.80388 1.02615,-2.003027 1.196505,-2.51778 0.896177,-2.707928 -0.20395,-0.129127 -0.48988,-0.23273 -0.635401,-0.230229 -0.331877,0.0057 -2.813273,5.537259 -2.622456,5.846008 0.199086,0.322128 0.530699,0.280786 0.833986,-0.103971 z m -2.287732,-2.724825 c 0.9634,-0.498193 1.824914,-1.840082 1.826255,-2.844565 0.0015,-1.11723 -0.593502,-2.051112 -2.134856,-3.350801 -1.272633,-1.073101 -1.418811,-1.13402 -1.679575,-0.699954 -0.157092,0.261495 -0.967127,1.387026 -1.800077,2.501181 -0.832951,1.114154 -1.51756,2.170374 -1.521355,2.347155 -0.0038,0.176781 0.231227,0.44886 0.522269,0.604621 0.41286,0.220957 0.529166,0.201213 0.529166,-0.08983 0,-0.667306 2.914358,-4.408089 3.434241,-4.408089 0.268108,0 0.807527,0.380367 1.198708,0.845259 0.56846,0.675577 0.681948,1.025754 0.565329,1.744387 -0.314047,1.935245 -2.316723,3.476904 -3.809215,2.932333 -0.822145,-0.29998 -0.746621,-0.06471 0.132291,0.412103 0.943825,0.512034 1.755089,0.513871 2.736819,0.0062 z m 31.571222,-0.349003 c 0.125434,-0.202958 -1.134433,-6.602704 -1.358042,-6.898444 -0.04847,-0.0641 -0.285685,0.08102 -0.527155,0.322493 -0.399499,0.3995 -0.401647,0.481473 -0.02385,0.910293 0.538115,0.61079 1.309011,3.98732 0.959643,4.203242 -0.141597,0.08751 -1.155805,-0.445239 -2.253796,-1.18389 -1.657806,-1.115255 -2.084685,-1.295726 -2.517264,-1.064217 -0.2865043,0.153333 -0.4809537,0.318523 -0.4321102,0.36709 0.4070232,0.404719 5.4514752,3.565494 5.6955872,3.568766 0.173313,0.0023 0.378958,-0.09908 0.456989,-0.225333 z m 4.651855,-4.486823 c 0,-0.265675 -0.299943,-0.764828 -0.666541,-1.109229 -0.366598,-0.344401 -0.624434,-0.752108 -0.572968,-0.906017 0.05358,-0.16023 0.865023,-0.279833 1.898529,-0.279833 2.184789,0 2.693009,-0.537246 0.745895,-0.788495 -1.698487,-0.219166 -2.023194,-0.429369 -2.230725,-1.444083 -0.387011,-1.892271 -1.647,-1.943861 -3.353665,-0.137313 -1.080403,1.143634 -1.148346,1.287994 -0.692082,1.470474 0.278263,0.111289 1.33937,0.978754 2.358016,1.927698 1.922318,1.790784 2.513541,2.088754 2.513541,1.266798 z m -3.110744,-3.368531 c -0.855874,-0.855875 -0.903458,-0.978863 -0.525101,-1.35722 0.92142,-0.92142 2.539413,0.30164 2.198094,1.661566 -0.217307,0.865821 -0.566316,0.80233 -1.672993,-0.304346 z m -20.1741216,2.594807 c -8.428e-4,-0.254662 -0.121778,-1.177396 -0.2687447,-2.050521 -0.4138687,-2.458782 -0.3376343,-8.663213 0.146379,-11.913244 0.8211882,-5.514076 -0.071318,-7.18321 -5.2094221,-9.742481 l -2.7364716,-1.363026 -0.462606,-1.455209 c -0.254433,-0.800364 -0.646143,-2.14474 -0.870467,-2.987501 -0.483628,-1.816943 -1.737157,-3.337035 -3.426069,-4.154623 -0.905758,-0.43847 -1.980255,-0.610852 -5.000926,-0.802298 -4.322023,-0.273923 -7.952495,-0.937765 -11.540091,-2.110137 -3.176377,-1.037992 -3.579991,-1.013207 -2.274482,0.139669 1.939323,1.712588 7.404738,3.359218 13.996495,4.216887 1.717019,0.223406 3.461241,0.581696 3.876048,0.796201 1.269833,0.656657 2.557435,2.436542 3.424432,4.733682 0.929572,2.462934 1.430055,3.019931 4.1297496,4.596069 2.146341,1.253079 3.1145717,2.189353 3.6909301,3.569112 0.3541462,0.847799 0.3711011,1.439686 0.1212661,4.233333 -0.4703726,5.259692 0.059803,10.717778 1.3171918,13.560315 0.5352504,1.210022 1.0896029,1.584307 1.0867878,0.733772 z m 4.3593305,-0.14936 c 0.2206857,-0.336809 0.6647267,-1.557199 0.9867576,-2.711979 0.533663,-1.913677 0.5865317,-2.708759 0.5970401,-8.978766 0.011175,-6.667841 0.029525,-6.904395 0.5973331,-7.700407 0.7071287,-0.991326 1.8457889,-1.87218 3.7424625,-2.895124 1.8127636,-0.977688 2.9870618,-2.357772 3.5642658,-4.188874 0.573901,-1.820625 1.894622,-3.80805 3.040915,-4.575978 0.483604,-0.323977 1.436104,-0.658799 2.116666,-0.744049 8.684933,-1.087903 14.603276,-2.799666 16.440222,-4.755006 0.816181,-0.868785 0.502233,-0.85515 -2.507324,0.108897 -3.659861,1.172358 -7.384341,1.850334 -11.650075,2.12069 -3.445664,0.218382 -3.967853,0.317411 -5.195433,0.985275 -1.983103,1.078906 -2.734686,2.17268 -3.4875607,5.075424 -0.353897,1.364467 -0.8755127,2.791672 -1.1591459,3.171568 -0.2836332,0.379896 -1.3401484,1.049452 -2.3478115,1.487902 -2.7080688,1.178323 -3.6876358,1.83114 -4.5649553,3.042245 -1.17283319,1.619049 -1.40231731,3.106685 -0.96287616,6.241865 0.77137186,5.503332 0.76223926,9.733509 -0.0303736,14.068802 -0.18676431,1.02153 0.23025169,1.147422 0.81989306,0.247515 z m -23.2325769,-1.81475 c 2.844567,-0.796186 3.491029,-1.206781 2.684665,-1.705141 -0.173313,-0.107113 -0.36119,-0.05653 -0.417504,0.112417 -0.184021,0.552063 -4.559049,1.71235 -4.559049,1.209091 0,-0.09071 0.542137,-1.057904 1.204749,-2.149315 1.16687,-1.921993 1.398108,-2.951716 0.71348,-3.177184 -0.181901,-0.05991 -0.330729,0.0048 -0.330729,0.143795 0,0.138992 -0.654844,1.409022 -1.455208,2.822289 -1.422938,2.512595 -1.765959,3.583678 -1.147695,3.583678 0.169132,0 1.657413,-0.377833 3.307291,-0.83963 z m 15.0762999,-1.760935 c -0.8500072,-3.059204 -1.2286043,-6.210907 -1.2286043,-10.227749 0,-3.908637 -0.019188,-4.048453 -0.6488248,-4.727843 -1.4969878,-1.615277 -1.8596838,-0.737882 -1.6612308,4.018674 0.150828,3.615061 1.0078846,7.608632 2.223553,10.360942 1.3715412,3.105212 2.1074092,3.427499 1.3151069,0.575976 z m 12.2146472,-0.243527 c 1.5814706,-3.437395 2.2112126,-6.366116 2.3602204,-10.976598 0.1213608,-3.755053 0.090286,-4.180387 -0.3168313,-4.336612 -0.2960001,-0.113586 -0.6911797,0.06658 -1.1479545,0.52335 -0.6915127,0.691513 -0.6969872,0.728725 -0.7547619,5.130363 -0.056777,4.325638 -0.243429,5.654841 -1.6071873,11.445256 -0.2821053,1.197798 0.5727787,0.156815 1.4665146,-1.785759 z m 19.2991989,-0.860074 c 0.0446,-0.246479 -0.330712,-0.56504 -0.990398,-0.840638 -1.310096,-0.547321 -1.581455,-1.137136 -0.856637,-1.861954 0.690064,-0.690064 1.808168,-0.462625 2.225189,0.452636 0.161851,0.355224 0.395927,0.583038 0.520168,0.506252 0.444107,-0.274473 0.214753,-1.349522 -0.413911,-1.940121 -0.501439,-0.471078 -0.815165,-0.56255 -1.450673,-0.422969 -0.675077,0.148272 -0.914805,0.05726 -1.431518,-0.543452 -0.856665,-0.995932 -1.76314,-0.733939 -2.831073,0.818248 -0.788001,1.145321 -0.846986,1.709811 -0.179753,1.72027 0.173312,0.0027 1.208083,0.595059 2.299489,1.316316 1.969423,1.301496 2.971167,1.557774 3.109117,0.795412 z m -4.18226,-2.869206 c -0.385533,-0.312186 -0.542044,-0.645762 -0.434491,-0.926042 0.361951,-0.943229 2.036801,-0.200097 2.036801,0.90373 0,0.658875 -0.802389,0.670049 -1.60231,0.02231 z m -31.586529,-0.464308 c -1.325743,-3.839049 -1.562527,-5.285689 -1.611655,-9.846458 -0.06283,-5.833062 -0.18947,-5.992462 -5.283881,-6.650957 -3.04648,-0.393783 -6.484587,-1.542734 -9.622156,-3.215542 -1.363122,-0.726755 -2.553747,-1.244726 -2.645833,-1.151046 -0.293683,0.298769 2.803077,2.964573 4.631901,3.987309 2.240125,1.25275 5.465491,2.367204 8.171162,2.823365 l 2.110759,0.355863 0.183794,3.157677 c 0.211566,3.634831 0.904699,6.601353 2.159664,9.243094 0.862544,1.815683 2.226513,3.720306 2.481582,3.465238 0.07094,-0.07094 -0.187959,-1.046786 -0.575337,-2.168543 z m 21.419604,-1.032112 c 1.373367,-2.856818 2.029718,-5.63595 2.214209,-9.375449 l 0.162317,-3.290032 2.116667,-0.352774 c 4.488213,-0.748027 8.745593,-2.673106 11.365421,-5.139156 0.879539,-0.827912 1.529861,-1.575643 1.44516,-1.661625 -0.0847,-0.08598 -1.394389,0.487332 -2.910417,1.274031 -3.15464,1.637008 -6.062852,2.612442 -9.106414,3.054353 -1.164167,0.169031 -2.521534,0.368817 -3.016373,0.443969 -0.497783,0.0756 -1.23651,0.473444 -1.653645,0.890579 l -0.75394,0.75394 v 3.689862 c 0,4.268527 -0.4503902,7.242118 -1.5829109,10.450791 -0.4390868,1.244026 -0.7983395,2.353202 -0.7983395,2.464836 0,0.615698 1.7563757,-1.618475 2.5182654,-3.203325 z m -37.178682,-0.132291 c 1.157706,-0.582084 2.230641,-1.058334 2.3843,-1.058334 0.153659,0 0.528249,0.421803 0.832423,0.937339 0.304174,0.515537 0.601442,0.888941 0.660595,0.829787 0.157539,-0.157538 -2.17713,-5.105834 -2.50444,-5.308123 -0.543146,-0.335683 -0.589673,0.355453 -0.05961,0.885513 1.010614,1.010614 0.718057,1.451005 -1.842433,2.773446 -1.341665,0.692943 -2.38125,1.397694 -2.38125,1.614286 0,0.611 0.65778,0.458689 2.910417,-0.673914 z m 54.239583,-0.949556 c 0,-0.422806 -5.225937,-3.091048 -5.600562,-2.859517 -0.121149,0.07487 -0.216863,0.337468 -0.212697,0.583542 0.0052,0.307665 0.851268,0.832661 2.70881,1.68087 1.48568,0.678405 2.791959,1.177394 2.902842,1.108864 0.110884,-0.06853 0.201607,-0.299721 0.201607,-0.513759 z m -56.650306,-2.953049 c 0.346117,-0.28704 0.657811,-0.99874 0.820094,-1.872546 0.303773,-1.635653 0.431653,-1.897766 0.925887,-1.897766 0.689474,0 1.251142,0.838311 1.092642,1.63081 -0.114992,0.574961 -0.05074,0.75044 0.274792,0.75044 0.342667,0 0.394311,-0.191983 0.266901,-0.992188 -0.15867,-0.996536 -1.180965,-2.182812 -1.881077,-2.182812 -0.76874,0 -1.527225,0.977016 -1.841383,2.371912 -0.176731,0.784705 -0.522603,1.553697 -0.768606,1.708871 -0.695979,0.439013 -1.359634,-0.137035 -1.455436,-1.263308 -0.09751,-1.146335 -0.579341,-1.305971 -0.579341,-0.191942 0,0.988709 1.164008,2.40155 1.978583,2.40155 0.334745,0 0.85987,-0.208359 1.166944,-0.463021 z m 58.195337,-0.740053 c 0.343776,-0.754508 0.401215,-2.215644 0.104564,-2.659921 -0.342274,-0.512602 -1.331399,-0.903167 -1.828865,-0.722144 -0.265204,0.09651 -0.929015,0.572328 -1.475138,1.057385 -1.064162,0.945171 -1.494464,1.066798 -1.996842,0.564421 -0.469736,-0.469736 -0.386453,-1.125584 0.211667,-1.666875 0.625286,-0.565877 0.680359,-0.926042 0.141601,-0.926042 -0.554026,0 -0.935351,0.853348 -0.935351,2.093173 0,0.843275 0.137235,1.159548 0.648503,1.494544 0.822042,0.538623 1.559042,0.320797 2.857988,-0.844698 1.062758,-0.953572 1.493119,-1.077159 1.996842,-0.573436 0.426665,0.426665 0.387202,1.287888 -0.08779,1.915883 -0.43489,0.574975 -0.499661,0.941618 -0.166347,0.941618 0.122163,0 0.360288,-0.303259 0.529168,-0.673908 z m -28.34921691,-9.167874 c 1.86093391,-1.074028 2.63792141,-1.790419 3.31396431,-3.055511 0.8417819,-1.575243 1.0072678,-2.622567 0.781901,-4.948481 l -0.1781375,-1.838482 -1.5875,-0.471897 c -0.8851045,-0.263105 -2.20100787,-0.939631 -2.97410301,-1.529032 l -1.38660299,-1.057135 -0.8623553,0.751136 c -1.0361547,0.90252 -2.2905281,1.567785 -3.7505761,1.98914 l -1.0805293,0.31183 -0.2289693,1.772047 c -0.4657996,3.60493 0.4981791,5.802133 3.3352145,7.601977 1.9399365,1.230716 3.1006469,1.349964 4.61769369,0.474408 z m -3.15987639,-2.215804 c -1.3057359,-0.708373 -0.7689757,-1.174463 1.3445563,-1.16753 1.92172552,0.0063 2.311785,0.547623 0.92179615,1.279256 -0.76022119,0.400149 -1.37905255,0.369642 -2.26635245,-0.111726 z m 0.5953125,-2.49855 c -0.3527778,-0.231584 -0.3527778,-0.28948 0,-0.521064 0.2182813,-0.143292 0.5159375,-0.260531 0.6614584,-0.260531 0.14552079,0 0.44317704,0.117239 0.66145829,0.260531 0.35277778,0.231584 0.35277778,0.28948 0,0.521064 -0.21828125,0.143293 -0.5159375,0.260532 -0.66145829,0.260532 -0.1455209,0 -0.4431771,-0.117239 -0.6614584,-0.260532 z m -3.8779713,-3.05143 c -0.3335953,-0.869336 1.443616,-1.446869 2.4411181,-0.79328 0.9852012,0.645528 0.6607395,1.059452 -0.9020065,1.150712 -1.0804329,0.06309 -1.4068275,-0.01271 -1.5391116,-0.357432 z m 6.07563628,-0.02549 c -0.20096912,-0.523717 0.56029802,-1.152364 1.39546812,-1.152364 0.7499169,0 1.8415985,0.877381 1.5927246,1.280067 -0.3080396,0.498419 -2.7886069,0.39241 -2.98819272,-0.127703 z m -8.81629978,3.411699 c -0.00485,-0.871768 -0.1688729,-1.126538 -1.1111188,-1.725903 -0.9532096,-0.60634 -1.0014966,-0.58949 -1.0014966,0.349474 0,0.532149 0.238088,1.027036 0.7000937,1.455208 0.9270222,0.859135 1.4175919,0.831775 1.4125217,-0.07878 z m 15.6813452,0.202622 c 0.7415164,-0.583277 1.1616747,-1.791883 0.7619039,-2.191654 -0.3979633,-0.397963 -1.800704,0.73523 -1.9633544,1.586081 -0.2386904,1.248628 0.1407817,1.439895 1.2014505,0.605573 z m -23.6801116,-0.20135 c 0.05971,-0.181202 -0.234778,-0.672802 -0.654422,-1.092447 -0.577443,-0.577442 -1.113527,-0.806648 -2.204437,-0.942519 -4.14515,-0.516272 -8.913109,-1.809295 -12.338014,-3.345946 -2.728933,-1.22439 -2.652134,-0.602099 0.149352,1.210173 2.935112,1.898715 7.912305,3.798797 11.673256,4.456357 1.258341,0.220007 3.263578,0.05027 3.374265,-0.285618 z m 35.027236,0.04322 c 2.542111,-0.480975 6.440587,-1.868423 9.009328,-3.206376 1.828267,-0.95227 3.897434,-2.557526 3.639303,-2.823364 -0.08071,-0.08312 -1.236881,0.31886 -2.569271,0.893285 -2.859449,1.232776 -7.464858,2.494877 -10.730189,2.940582 -2.58157,0.352374 -3.619422,0.917877 -3.619422,1.972143 0,0.569868 0.115987,0.642255 1.029105,0.642255 0.566008,0 2.024524,-0.188336 3.241146,-0.418525 z m -27.0805783,-4.711909 c -0.041872,-0.277236 -0.3137457,-0.635288 -0.604163,-0.79567 -0.2904173,-0.160383 -0.8445783,-0.499964 -1.2314687,-0.754626 -0.979462,-0.644707 -1.283208,-0.580356 -1.283208,0.271858 0,0.966633 0.664487,1.880247 1.6875924,2.320299 0.7271346,0.312751 0.8667114,0.301831 1.166664,-0.09127 0.1873931,-0.245588 0.3064556,-0.673353 0.2645833,-0.950589 z m 16.8836602,0.2621 c 0.8657506,-0.86575 1.1610702,-1.817996 0.6598785,-2.127749 -0.1318377,-0.08148 -0.8462127,0.166522 -1.5875,0.551115 -1.1136029,0.577758 -1.3477952,0.822994 -1.3477952,1.41135 0,1.384904 0.9842988,1.456402 2.2754167,0.165284 z m -13.3540853,-3.473424 c 1.5977752,-0.544417 3.1411686,-1.842595 3.1411686,-2.642099 0,-0.344619 -0.1055353,-0.691805 -0.234523,-0.771524 -0.1289876,-0.07972 -1.051722,0.228122 -2.0505208,0.684091 -2.1505281,0.981753 -4.3307562,1.154447 -5.3698414,0.425339 -0.757415,-0.531464 -1.340948,-0.220119 -1.340948,0.715465 0,1.662374 3.1387901,2.51412 5.8546646,1.588728 z m 12.5915649,-0.291917 c 0.8156326,-0.606731 1.0750694,-1.51407 0.597467,-2.089546 -0.2676172,-0.322459 -0.4289145,-0.313396 -1.1447897,0.06432 -1.2940777,0.682797 -3.204316,0.540609 -5.3322838,-0.396907 -1.33244095,-0.587032 -1.93581867,-0.735051 -2.17777366,-0.534246 -0.47507092,0.394273 -0.4262615,0.592699 0.38210908,1.553393 1.17398928,1.395207 3.05763598,2.138399 5.16172948,2.036557 1.2855792,-0.06222 1.9811777,-0.237559 2.5135416,-0.633573 z m -20.7185395,-1.155909 c 0.08068,-0.363802 0.850111,-1.639171 1.709849,-2.834152 2.7979956,-3.889038 2.7832327,-6.065701 -0.06825,-10.063477 -2.996986,-4.201764 -4.623394,-7.259169 -6.122923,-11.510184 -0.397822,-1.127787 -0.826936,-2.050521 -0.953587,-2.050521 -0.126652,0 -0.230275,0.667047 -0.230275,1.482327 0,2.673925 2.189851,8.094199 5.288808,13.090746 1.734217,2.796135 1.999321,3.678878 1.617383,5.385559 -0.167377,0.747919 -0.777644,2.129365 -1.35615,3.069881 -0.861329,1.400323 -1.051854,1.952021 -1.051976,3.046175 -1.6e-4,1.444074 0.511898,2.371597 0.838692,1.519173 0.09996,-0.260738 0.247754,-0.771725 0.328433,-1.135527 z m 25.105722,-0.31813 c -0.0065,-0.830507 -0.339433,-1.763006 -1.234722,-3.458657 -1.0455107,-1.980166 -1.2256734,-2.544357 -1.2250933,-3.836458 5.708e-4,-1.27123 0.1546762,-1.770211 0.9581393,-3.10238 3.301257,-5.473596 5.173779,-9.536428 5.816953,-12.621108 0.38489,-1.845942 0.331551,-3.121601 -0.130523,-3.121601 -0.12311,0 -0.488864,0.803672 -0.812788,1.785937 -1.007808,3.056074 -3.352687,7.654041 -5.4513554,10.689319 -2.4489109,3.541829 -2.762356,4.258076 -2.762356,6.312203 0,1.830616 0.4354482,2.854509 2.2790618,5.358881 0.6534916,0.887705 1.3258756,2.12889 1.4941866,2.758188 0.268083,1.002331 0.35384,1.096361 0.691734,0.758467 0.221916,-0.221917 0.381912,-0.868582 0.376763,-1.522791 z m -28.713117,0.435419 c 0.915942,-0.641551 0.785053,-2.071823 -0.363245,-3.969313 -2.265423,-3.743468 -3.504099,-7.007766 -4.203254,-11.07688 -0.223135,-1.298657 -0.456509,-2.412004 -0.518609,-2.474103 -0.0621,-0.0621 -0.253779,0.405125 -0.425955,1.038278 -0.722102,2.655426 0.304789,8.053294 2.297722,12.078017 0.670013,1.35309 1.136157,2.543715 1.035874,2.645833 -0.100283,0.102119 -0.739459,0.374542 -1.420392,0.605384 -0.687113,0.232938 -1.238061,0.585007 -1.238061,0.791152 0,0.755031 3.861948,1.043828 4.83592,0.361632 z m 35.116163,0.179538 c 1.169869,-0.25016 0.968734,-0.853287 -0.44431,-1.332322 -0.680934,-0.230842 -1.313943,-0.497098 -1.406689,-0.59168 -0.09275,-0.09458 0.44147,-1.421061 1.187144,-2.947733 1.695888,-3.472114 2.485562,-6.933282 2.322912,-10.181403 -0.06028,-1.203732 -0.249864,-2.328872 -0.421305,-2.500313 -0.203219,-0.203219 -0.31171,-0.213266 -0.31171,-0.02887 0,0.874746 -0.887999,5.229882 -1.36655,6.702158 -0.645032,1.98446 -2.016129,4.86959 -3.172623,6.675992 -1.738432,2.715367 -1.170729,4.463822 1.430319,4.405205 0.763984,-0.01722 1.74625,-0.107684 2.182812,-0.201036 z m -22.8803601,-3.231842 c 2.0227538,-1.078116 2.8396867,-1.929213 2.3815891,-2.481187 -0.5467709,-0.658819 -1.5597018,-0.470113 -3.5089332,0.653702 -1.00961,0.582083 -1.9296796,1.058333 -2.0445991,1.058333 -0.1149195,0 -0.3571641,0.178594 -0.5383215,0.396875 -0.2627804,0.316631 -0.2627804,0.477119 0,0.79375 0.5298558,0.638437 2.0444799,0.466381 3.7102647,-0.421473 z m 10.2597353,0.500848 c 0.174625,-0.174625 0.3175,-0.400054 0.3175,-0.500954 0,-0.100899 -0.9822656,-0.74772 -2.1828125,-1.437379 -1.5177205,-0.87186 -2.5027922,-1.263388 -3.23297674,-1.284983 -2.05363946,-0.06074 -1.34033155,1.279837 1.49688634,2.813212 1.4198142,0.767339 3.0576611,0.953846 3.6014029,0.410104 z m -20.3293092,-3.898439 c 0.514983,-0.962253 0.273424,-1.93439 -1.050796,-4.228865 -1.66939,-2.892553 -2.990557,-6.01471 -3.856936,-9.114645 -0.96717,-3.460568 -0.893242,-3.292531 -1.204567,-2.737938 -0.373303,0.664997 0.133418,4.525175 0.980467,7.469149 1.084901,3.770647 3.793352,9.124071 4.616131,9.124071 0.132995,0 0.36506,-0.230297 0.515701,-0.511772 z m 28.785584,-1.298007 c 2.153327,-3.489587 3.901711,-8.790269 4.212209,-12.770412 0.182231,-2.33594 -0.24097,-3.076475 -0.706719,-1.236647 -0.992698,3.921411 -2.892734,8.504231 -4.926564,11.882699 -0.921573,1.530858 -1.102713,2.525968 -0.622975,3.422367 0.458718,0.857122 0.878781,0.590375 2.044049,-1.298007 z m -16.6054414,-8.508971 c 0.479068,-0.479068 0.5291666,-0.881944 0.5291666,-4.255382 0,-2.862419 -0.076668,-3.701077 -0.3307291,-3.617774 -0.4318678,0.141604 -0.9472868,1.720067 -1.2426221,3.805511 -0.1299337,0.917497 -0.3142031,1.794319 -0.4094877,1.948493 -0.1075555,0.174028 -0.558211,-0.02458 -1.1885337,-0.523808 -1.2433349,-0.98474 -2.9025713,-1.70768 -3.2111377,-1.399113 -0.1268878,0.126888 0.6781541,1.18831 1.8207556,2.400609 2.2240956,2.359763 2.9989037,2.675148 4.0325881,1.641464 z m 6.4151298,-1.589571 c 1.1283453,-1.165306 2.0515368,-2.249776 2.0515368,-2.409933 0,-0.511265 -1.3834223,0.0017 -2.9617633,1.098166 -0.8286053,0.575638 -1.5588489,0.957912 -1.6227635,0.849497 -0.063915,-0.108414 -0.2626404,-1.090086 -0.4416128,-2.181492 -0.17897233,-1.091407 -0.48445029,-2.371329 -0.67883986,-2.844271 -0.68667989,-1.670667 -0.90960385,-0.985826 -0.90960385,2.79438 0,3.311829 0.0505549,3.708541 0.53947355,4.233334 1.00302136,1.076617 1.77706056,0.780419 4.02357296,-1.539681 z m 222.9786236,57.603771 c -0.65131,-0.329122 -1.4016,-1.344739 -3.81472,-5.163737 -1.19367,-1.889105 -1.24486,-1.932018 -2.20936,-1.852084 l -0.98738,0.08183 -0.13229,3.307292 -0.1323,3.307292 -0.85574,0.0826 -0.85575,0.0826 -0.0703,-7.490934 c -0.0702,-7.483462 -0.0709,-7.491194 -0.66561,-7.752111 -0.32742,-0.143648 -0.59531,-0.325207 -0.59531,-0.403465 0,-0.07826 1.66305,-0.114592 3.69566,-0.08074 4.1347,0.06886 4.96682,0.318266 5.84005,1.750416 1.03606,1.699206 0.48745,4.04742 -1.33475,5.713072 l -1.06181,0.970591 1.67511,2.743216 c 0.9213,1.508769 2.04803,3.187418 2.50383,3.730331 1.08128,1.287926 0.58304,1.773447 -0.99934,0.973831 z m -4.32011,-8.108255 c 1.36412,-0.619354 1.9109,-1.42192 2.10915,-3.095792 0.18168,-1.533994 -0.34728,-3.036758 -1.27267,-3.615623 -0.87373,-0.546547 -2.84014,-0.799844 -3.29282,-0.424154 -0.50232,0.416886 -0.53586,7.27168 -0.0366,7.473147 0.64455,0.260083 1.40269,0.157419 2.49291,-0.337578 z m -148.741352,7.747401 c -2.743078,-1.441557 -3.45661,-3.368978 -3.706714,-10.012719 -0.157976,-4.196442 -0.207899,-4.528557 -0.744847,-4.955055 -0.557928,-0.443162 -0.511309,-0.457317 1.524889,-0.463021 l 2.100411,-0.0059 -0.579057,0.539474 c -0.520742,0.485145 -0.577895,0.798226 -0.567524,3.108854 0.03359,7.48314 0.704108,10.000866 2.963254,11.1267 2.151985,1.07243 4.307592,0.24637 5.510614,-2.11175 0.600565,-1.177204 1.022295,-4.77465 1.032773,-8.809767 0.0061,-2.340196 -0.05633,-2.696005 -0.568461,-3.241146 l -0.575287,-0.612365 h 1.652824 1.652824 l -0.54837,0.69714 c -0.467492,0.594319 -0.549047,1.072352 -0.552955,3.241146 -0.0097,5.359992 -0.717898,8.954104 -2.056042,10.433848 -1.301902,1.439668 -4.754773,2.00185 -6.538332,1.064544 z m 50.469272,0.240975 -2.71198,-0.08575 v -5.809336 c 0,-5.52279 -0.0261,-5.825636 -0.52917,-6.139806 -0.29104,-0.181758 -0.5291,-0.391126 -0.52903,-0.465262 7e-5,-0.07414 1.62621,-0.132383 3.61364,-0.129437 3.45255,0.0051 3.62495,0.03099 3.87024,0.580704 0.1412,0.316441 0.17346,0.79028 0.0717,1.052977 -0.16555,0.427281 -0.24118,0.400931 -0.71744,-0.249975 -0.48338,-0.660621 -0.68608,-0.727604 -2.20181,-0.727604 -1.96128,0 -1.99061,0.03899 -1.99061,2.645833 0,0.994843 0.0723,1.997136 0.1606,2.227319 0.22692,0.591343 2.66517,0.577137 3.3243,-0.01937 0.46226,-0.418346 0.48385,-0.382077 0.48385,0.812953 v 1.250836 l -0.69714,-0.54837 c -0.77519,-0.609764 -2.44474,-0.740243 -2.95411,-0.23087 -0.1958,0.195798 -0.3175,1.156931 -0.3175,2.507442 0,2.038835 0.0452,2.219586 0.65569,2.619565 0.5181,0.339474 0.99388,0.390371 2.26744,0.242559 1.34896,-0.156564 1.65881,-0.290331 1.90033,-0.820399 0.38774,-0.851011 0.73279,-0.800394 0.73279,0.107499 0,0.895803 -0.44555,1.395324 -1.1774,1.320034 -0.29831,-0.03069 -1.76278,-0.09439 -3.25437,-0.141548 z m 15.28408,-0.327425 c -0.28862,-0.288624 -1.18124,-1.542383 -1.98359,-2.786129 -0.80235,-1.243746 -1.63929,-2.330606 -1.85985,-2.415244 -0.85369,-0.327593 -1.1663,0.402389 -1.24458,2.9063 l -0.0757,2.422971 -0.7276,0.08372 -0.72761,0.08372 v -5.687217 c 0,-4.81742 -0.0636,-5.750806 -0.41577,-6.102991 -0.22868,-0.228676 -0.53336,-0.415774 -0.67707,-0.415774 -0.14372,0 -0.20495,-0.09118 -0.13608,-0.202623 0.0689,-0.111442 1.49341,-0.179846 3.16563,-0.152009 4.29783,0.07155 5.20704,0.617504 5.20704,3.126698 0,1.078681 -0.13621,1.364979 -1.18071,2.481632 l -1.18071,1.262278 1.6988,2.540386 c 0.93435,1.397213 1.82286,2.617052 1.97447,2.710753 0.53155,0.328515 0.26813,0.668302 -0.5181,0.668302 -0.43875,0 -1.02844,-0.234697 -1.31852,-0.524773 z m -2.29541,-6.368581 c 1.40732,-1.106999 1.47824,-4.284757 0.11035,-4.944952 -0.97985,-0.472919 -1.84326,-0.586198 -2.36003,-0.309635 -0.42132,0.225487 -0.48639,0.607096 -0.48639,2.852736 0,1.425835 0.0794,2.671802 0.17639,2.768816 0.37161,0.371603 1.89915,0.152609 2.55968,-0.366965 z m 7.91341,6.498895 c -0.84902,-0.36902 -1.17127,-0.932083 -0.52916,-0.924607 0.1819,0.0021 0.84798,0.183998 1.48018,0.404178 1.97849,0.68906 3.71607,-0.04267 4.13755,-1.742397 0.2308,-0.930734 -0.53394,-1.824541 -2.42587,-2.835309 -0.84602,-0.451988 -1.942,-1.239794 -2.43552,-1.750681 -1.76382,-1.825922 -1.31217,-4.418309 0.93323,-5.356496 0.90792,-0.379357 2.70399,-0.474172 3.73728,-0.197293 0.64808,0.173659 1.02354,1.13466 0.73545,1.882409 -0.16454,0.427062 -0.20067,0.421894 -0.4583,-0.06555 -0.47582,-0.900255 -1.05947,-1.190625 -2.39316,-1.190625 -1.01088,0 -1.42267,0.138291 -1.93381,0.649432 -1.30791,1.307912 -0.59754,2.521761 2.33644,3.992427 2.31039,1.158084 3.09955,2.19075 3.09955,4.055952 0,2.593105 -3.47916,4.297601 -6.28386,3.078564 z m 47.88959,0.214318 -1.65365,-0.109693 v -5.561019 c 0,-5.626457 -0.14252,-6.584564 -0.97945,-6.584564 -0.23741,0 -0.35163,-0.08003 -0.25382,-0.177837 0.0978,-0.09781 1.82157,-0.17286 3.83057,-0.166779 3.05542,0.0092 3.8448,0.09687 4.8272,0.535839 2.12071,0.947597 3.33788,2.580192 3.60497,4.835381 0.46917,3.96138 -2.10187,7.040297 -6.05399,7.249894 -0.9175,0.04866 -2.41233,0.03911 -3.32183,-0.02122 z m 4.97102,-0.944338 c 1.84111,-0.928418 2.50353,-2.350997 2.49486,-5.357813 -0.009,-3.195333 -0.82476,-4.656246 -3.00745,-5.387308 -1.18302,-0.396237 -3.80471,-0.386101 -4.20708,0.01627 -0.22551,0.22551 -0.3175,1.831523 -0.3175,5.543103 0,5.985927 -0.0938,5.759373 2.39133,5.773019 1.00609,0.0055 1.83526,-0.178519 2.64584,-0.587267 z m 36.39413,0.708222 c -3.2006,-1.172679 -4.82963,-4.577436 -3.86004,-8.067701 0.34702,-1.249205 1.91149,-3.0425 3.24999,-3.725353 2.27231,-1.159242 5.43316,-0.867919 7.47421,0.688866 2.92701,2.232536 2.93348,7.838835 0.0116,10.067444 -1.831,1.396573 -4.70922,1.830557 -6.87578,1.036744 z m 3.94165,-0.408815 c 2.72522,-0.756572 4.10388,-4.68938 2.89135,-8.247971 -1.15424,-3.387484 -5.30122,-4.34069 -7.63689,-1.75538 -1.13832,1.259977 -1.56357,2.785115 -1.40426,5.036225 0.27535,3.890637 2.76989,5.90545 6.1498,4.967126 z m -150.765311,0.3841 c -0.09701,-0.09701 -0.176389,-2.71538 -0.176389,-5.818592 0,-5.355657 -0.02687,-5.658986 -0.529167,-5.972673 -0.291041,-0.181758 -0.529166,-0.436376 -0.529166,-0.565818 0,-0.304426 2.394358,-0.03846 2.612411,0.290192 0.613322,0.924396 6.043161,8.254648 6.466246,8.729396 0.287794,0.322937 0.625018,0.524269 0.749386,0.447406 0.324792,-0.200733 0.28156,-7.977226 -0.04777,-8.592584 -0.150641,-0.281475 -0.455324,-0.511772 -0.677073,-0.511772 -0.22175,0 -0.329597,-0.119063 -0.23966,-0.264584 0.161866,-0.261904 3.042709,-0.387158 3.042709,-0.132291 0,0.07276 -0.238125,0.370416 -0.529167,0.661458 -0.49635,0.49635 -0.529167,0.881945 -0.529167,6.217709 0,7.597097 0.231674,7.585185 -5.145861,0.264583 -1.710337,-2.328333 -3.216733,-4.273021 -3.347546,-4.321528 -0.134867,-0.05001 -0.237843,1.859395 -0.237843,4.410131 0,5.006374 -0.151037,5.889874 -0.881944,5.158967 z m 14.828811,0.01215 c -0.10369,-0.103695 -0.18853,-2.689396 -0.18853,-5.746002 0,-4.799983 -0.0597,-5.623414 -0.43789,-6.041319 -0.42014,-0.46425 -0.36487,-0.483855 1.36393,-0.483855 1.72058,0 1.78231,0.02154 1.36933,0.477875 -0.36679,0.405297 -0.44334,1.339581 -0.50402,6.151563 l -0.0716,5.673688 -0.67136,0.07829 c -0.36925,0.04306 -0.7562,-0.0065 -0.8599,-0.110243 z m 9.88732,-0.431071 c -1.88721,-4.888967 -4.62484,-11.216507 -4.92572,-11.384886 -0.2132,-0.119311 -0.38763,-0.330076 -0.38763,-0.468366 0,-0.367575 1.67454,-0.307308 2.20316,0.07929 0.24873,0.181901 1.25844,2.473854 2.24381,5.09323 1.09262,2.904487 1.92954,4.7625 2.14521,4.7625 0.21238,0 1.04295,-1.770805 2.07948,-4.433563 1.67649,-4.306735 1.71221,-4.448648 1.24859,-4.960937 -0.47086,-0.520298 -0.45896,-0.527376 0.88666,-0.527376 1.28841,0 1.79476,0.307225 1.0055,0.610092 -0.19713,0.07565 -1.28258,2.4994 -2.41211,5.38612 -2.31659,5.920461 -2.58466,6.439205 -3.32753,6.439205 -0.30476,0 -0.62719,-0.252755 -0.75942,-0.595312 z m 43.02935,0.431071 c -0.1037,-0.103695 -0.18854,-2.689396 -0.18854,-5.746002 0,-4.799983 -0.0597,-5.623414 -0.43788,-6.041319 -0.42014,-0.46425 -0.36488,-0.483855 1.36392,-0.483855 1.72059,0 1.78232,0.02154 1.36934,0.477875 -0.36679,0.405297 -0.44334,1.339581 -0.50403,6.151563 l -0.0716,5.673688 -0.67136,0.07829 c -0.36924,0.04306 -0.7562,-0.0065 -0.85989,-0.110243 z m 9.27548,-5.590446 -0.0713,-5.754688 -1.90288,-0.07743 c -1.68907,-0.06873 -1.93538,-0.0167 -2.19212,0.463021 -0.15908,0.297246 -0.40411,0.540448 -0.54452,0.540448 -0.36595,0 -0.31604,-1.51871 0.0575,-1.749574 0.17203,-0.106317 2.76164,-0.183317 5.75469,-0.171112 4.35637,0.01776 5.44191,0.09279 5.44191,0.376126 0,0.261537 -0.58491,0.37424 -2.24053,0.431714 -1.38195,0.04797 -2.31825,0.200058 -2.44334,0.396875 -0.11155,0.175502 -0.20464,2.789643 -0.20687,5.8092 l -0.004,5.490104 h -0.78859 -0.78859 z m 6.94015,5.585558 c 0,-0.113264 1.07156,-2.662958 2.38125,-5.665987 1.30969,-3.003029 2.38125,-5.77614 2.38125,-6.162468 0,-0.571111 0.12251,-0.702416 0.65536,-0.702416 0.38997,0 0.81016,0.241068 1.03763,0.595313 0.48252,0.751409 4.92159,11.426142 4.92159,11.835043 0,0.181934 -0.33844,0.270016 -0.84633,0.220262 -0.79558,-0.07794 -0.90028,-0.217776 -1.74587,-2.331868 -0.49474,-1.236927 -1.03663,-2.336432 -1.20419,-2.443344 -0.54264,-0.346239 -4.05195,-0.231843 -4.36238,0.142204 -0.15734,0.189581 -0.68167,1.290909 -1.16519,2.447396 -0.68376,1.635455 -1.00955,2.12149 -1.46612,2.187251 -0.32285,0.0465 -0.587,-0.0081 -0.587,-0.121386 z m 7.02765,-5.730793 c 0.1933,-0.503733 -1.09351,-3.75737 -1.48604,-3.75737 -0.39406,0 -1.92867,3.4748 -1.69884,3.84667 0.24433,0.395339 3.02887,0.317264 3.18488,-0.0893 z m 27.89735,0.396928 c 0,-5.202159 -0.0333,-5.580437 -0.54837,-6.235283 l -0.54837,-0.69714 h 1.73899 c 1.63039,0 2.2382,0.280989 1.34731,0.622856 -0.32616,0.125161 -0.40362,1.114703 -0.46302,5.915287 l -0.0713,5.764983 -0.72761,0.08372 -0.7276,0.08372 z m 40.6529,5.302099 c -0.0683,-0.110492 0.0411,-2.223851 0.24301,-4.696354 0.51437,-6.297802 0.50099,-6.934652 -0.15008,-7.141293 -0.29104,-0.09237 -0.52916,-0.27899 -0.52916,-0.414704 0,-0.342207 1.76852,-0.310091 2.4304,0.04413 0.33227,0.177824 1.46258,2.199425 2.90801,5.20108 1.98987,4.132243 2.42001,4.851185 2.71494,4.537757 0.19275,-0.204839 1.20154,-2.396497 2.24176,-4.870351 1.04021,-2.473854 2.08915,-4.646745 2.33095,-4.828646 0.51118,-0.384533 2.35305,-0.445456 2.57571,-0.08519 0.0835,0.135044 -0.0771,0.31817 -0.35682,0.406947 -0.27971,0.08878 -0.56669,0.312864 -0.63772,0.497972 -0.071,0.185107 0.16005,2.703785 0.51351,5.59706 0.35346,2.893276 0.58291,5.416198 0.50988,5.606495 -0.125,0.325767 -1.73687,0.512346 -1.73687,0.201049 0,-0.341592 -0.81327,-7.473204 -0.94144,-8.255578 -0.0775,-0.472942 -0.23991,-0.859896 -0.36095,-0.859896 -0.12105,0 -0.95745,1.711859 -1.85869,3.80413 -1.69623,3.937916 -2.2367,4.927121 -2.69203,4.927121 -0.14677,0 -1.20733,-1.964532 -2.3568,-4.365625 -1.14948,-2.401094 -2.19955,-4.365626 -2.3335,-4.365626 -0.27203,0 -0.47483,1.500727 -0.73299,5.423959 -0.0957,1.455208 -0.2737,2.913724 -0.39543,3.241146 -0.21188,0.569917 -1.11785,0.827787 -1.38569,0.394417 z m 17.73193,0.0025 c -0.0656,-0.109141 0.93938,-2.618523 2.23334,-5.576405 1.29397,-2.957882 2.35266,-5.726085 2.35266,-6.151563 0,-0.627058 0.11277,-0.772828 0.59532,-0.769543 0.32742,0.0022 0.72891,0.09152 0.8922,0.198437 0.23034,0.150811 3.84726,8.509996 5.14994,11.902199 0.20927,0.544932 0.15304,0.595312 -0.66442,0.595312 -0.87223,0 -0.91553,-0.05376 -1.85913,-2.307894 -0.53136,-1.269342 -1.10881,-2.398612 -1.28324,-2.50949 -0.53794,-0.341966 -4.06031,-0.244223 -4.36157,0.12103 -0.15003,0.181901 -0.60002,1.164167 -0.99998,2.182813 -0.39995,1.018646 -0.84214,2.000911 -0.98263,2.182812 -0.28284,0.366198 -0.88704,0.440726 -1.07249,0.132292 z m 6.86899,-5.747945 c 0.20641,-0.537895 -1.03921,-3.71091 -1.45678,-3.71091 -0.39044,0 -1.85696,3.27485 -1.68838,3.770313 0.16909,0.496991 2.95182,0.444432 3.14516,-0.0594 z m -95.61829,-8.745022 c -1.44633,-0.974019 -1.67194,-1.354881 -0.96359,-1.626702 0.28329,-0.108708 0.86914,0.285273 1.78279,1.198929 1.58405,1.584053 1.19751,1.785902 -0.8192,0.427773 z m -98.355322,-8.356038 c -2.470208,-0.325668 -5.423141,-1.150822 -7.027152,-1.963636 -1.314489,-0.666102 -1.509194,-0.982711 -1.050492,-1.708193 0.202612,-0.32045 0.385496,-0.336905 0.988136,-0.0889 6.989883,2.876513 10.014216,3.297874 13.950421,1.94362 3.551985,-1.222062 5.829821,-3.820513 6.160866,-7.028036 0.220792,-2.139267 -0.08753,-3.198206 -1.320721,-4.536062 -1.194175,-1.295527 -2.305436,-1.916212 -7.718237,-4.310957 -7.660847,-3.389331 -9.608003,-4.675356 -10.880241,-7.185998 -1.47917,-2.919 -1.389547,-7.088584 0.21716,-10.103075 2.453352,-4.60296 8.295989,-6.423582 16.734427,-5.214611 3.848806,0.551417 3.571875,0.231648 3.571875,4.124416 0,2.55089 -0.07783,3.310048 -0.330729,3.226075 -0.340002,-0.112894 -0.530628,-0.589132 -0.9921,-2.478552 -0.943603,-3.863418 -7.915632,-5.323225 -13.010321,-2.724109 -1.814206,0.925539 -3.578464,2.774787 -4.179278,4.380606 -1.029117,2.75056 -0.513705,4.906108 1.647579,6.890491 1.420382,1.304123 2.581608,1.912752 7.207557,3.777663 6.58057,2.652901 9.573303,4.65305 10.915577,7.295268 0.783746,1.542777 1.210954,3.970408 1.020076,5.796635 -0.683474,6.539128 -7.804756,10.9752 -15.904403,9.907358 z m 43.303472,-0.473224 c -0.16906,-0.104481 -1.44245,-2.976341 -2.82976,-6.381911 -1.38732,-3.405571 -2.66753,-6.284168 -2.84493,-6.396884 -0.57145,-0.363099 -11.1483,-0.255909 -11.61282,0.117689 -0.22616,0.181901 -1.44438,2.890573 -2.70715,6.019271 -1.28659,3.18772 -2.536731,5.892098 -2.843665,6.151563 -0.694022,0.58669 -2.076605,0.624219 -2.076605,0.05637 0,-0.223659 2.744749,-6.742331 6.09944,-14.485938 6.29029,-14.519816 6.19819,-14.253155 5.66255,-16.394389 l -0.18201,-0.727605 h 1.87613 c 1.78077,0 1.89491,0.03698 2.24546,0.727605 0.67605,1.33189 12.60885,30.388838 12.60885,30.70317 0,0.17003 -0.26789,0.363232 -0.59532,0.429338 -1.42243,0.287187 -2.51482,0.35808 -2.80017,0.181723 z m -6.51198,-14.602651 c 0.24032,-0.388842 -4.39672,-12.186054 -4.74433,-12.070183 -0.34017,0.113392 -5.19195,11.211456 -5.19195,11.876188 0,0.448716 0.33593,0.481894 4.87917,0.481894 3.23081,0 4.93929,-0.09726 5.05711,-0.287899 z m 62.03038,14.583054 -5.95312,-0.139946 -0.13229,-14.86973 c -0.096,-10.79232 -0.21666,-14.954053 -0.43996,-15.177246 -0.16921,-0.169134 -0.87868,-0.414195 -1.5766,-0.544579 -1.44923,-0.270746 -1.94032,-0.614694 -1.50262,-1.052396 0.21138,-0.211377 1.0547,-0.208581 3.08705,0.01024 1.85215,0.199415 5.0293,0.239056 9.4103,0.117412 l 6.61407,-0.183647 0.27367,0.719803 c 0.15052,0.395892 0.27367,1.673283 0.27367,2.838647 0,1.84745 -0.0573,2.107805 -0.44746,2.03267 -0.2901,-0.05587 -0.6106,-0.635734 -0.91138,-1.648933 -0.71905,-2.422209 -0.64742,-2.390635 -5.66805,-2.498201 -3.17394,-0.068 -4.46889,-0.0051 -4.75319,0.230834 -0.32545,0.270105 -0.39075,1.424244 -0.39075,6.906486 v 6.582186 l 4.56406,0.0041 c 2.51023,0.0022 4.73024,0.109274 4.93335,0.23788 0.2031,0.128606 0.2972,0.421672 0.2091,0.651258 -0.13609,0.35464 -0.86822,0.428305 -4.8672,0.489724 l -4.70702,0.07229 -0.0707,6.503336 c -0.0689,6.337651 -0.0564,6.516283 0.49092,7.011459 0.51072,0.462093 0.99647,0.507818 5.36234,0.504764 3.35994,-0.0023 4.97701,-0.10312 5.38807,-0.335766 0.39096,-0.221266 0.74958,-0.883336 1.07258,-1.980137 0.33735,-1.145541 0.63198,-1.675987 0.96671,-1.740449 0.44388,-0.08548 0.473,0.100285 0.37316,2.380369 -0.0596,1.3602 -0.20036,2.621919 -0.31288,2.80382 -0.14518,0.234693 -0.94914,0.313745 -2.76866,0.272238 -1.41024,-0.03217 -5.24298,-0.121468 -8.5172,-0.198438 z m 95.67022,0.03011 c -0.099,-0.160227 -1.30595,-3.055161 -2.68204,-6.433185 -1.37609,-3.378024 -2.65052,-6.236181 -2.83206,-6.35146 -0.18154,-0.115278 -2.78604,-0.21142 -5.78778,-0.213648 -4.66111,-0.0035 -5.50849,0.05714 -5.80563,0.415165 -0.19135,0.23057 -1.43292,3.058304 -2.75903,6.283855 l -2.4111,5.864637 -1.30827,-0.02126 c -0.71955,-0.01169 -3.39186,-0.168148 -5.93847,-0.347681 -2.54662,-0.179534 -7.69769,-0.300574 -11.44683,-0.268978 -3.74915,0.0316 -6.88574,-0.01167 -6.97022,-0.09614 -0.0845,-0.08447 4.10322,-6.383245 9.30598,-13.997267 5.20275,-7.614022 9.5141,-14.052037 9.58075,-14.306698 0.11341,-0.433269 -0.38174,-0.463021 -7.70589,-0.463021 -6.78242,0 -7.95144,0.0593 -8.75879,0.444295 -0.51243,0.244362 -1.0004,0.375591 -1.08437,0.291619 -0.17574,-0.175742 0.099,-1.83932 0.36473,-2.208282 0.10825,-0.150317 4.43567,-0.195503 11.02609,-0.115132 10.81918,0.131941 10.84813,0.133785 10.92831,0.695832 0.0548,0.384202 -2.83307,4.827234 -9.07467,13.961503 -5.03528,7.368879 -9.09457,13.495833 -9.02064,13.615451 0.0739,0.119619 2.9669,0.302347 6.42883,0.406062 3.46194,0.103715 7.48505,0.28836 8.94026,0.410323 1.89531,0.158848 2.73101,0.136137 2.94612,-0.08006 0.55338,-0.556188 11.47367,-26.185747 11.47367,-26.928329 0,-0.403129 -0.14206,-1.044747 -0.31569,-1.425818 -0.25722,-0.564555 -0.24498,-0.740879 0.0662,-0.952199 0.36813,-0.250036 3.32796,-0.152117 3.59915,0.119069 0.13141,0.131411 12.67006,30.348895 12.92828,31.15647 0.0737,0.230408 -0.0166,0.426524 -0.20062,0.435813 -0.18401,0.0093 -1.00318,0.103176 -1.82037,0.208639 -0.99111,0.127908 -1.54575,0.09476 -1.66585,-0.09957 z m -6.24105,-14.794445 c 0,-0.844705 -4.4341,-11.569359 -4.78334,-11.569359 -0.39806,0 -5.33471,11.223951 -5.14947,11.707813 0.095,0.248131 1.35116,0.330729 5.02971,0.330729 4.51776,0 4.9031,-0.03687 4.9031,-0.469183 z m -136.06198,14.605649 c -0.10914,-0.110958 -0.19844,-6.789868 -0.19844,-14.842021 0,-14.287501 -0.0128,-14.65303 -0.52916,-15.169445 -0.29105,-0.291042 -0.87662,-0.529167 -1.30128,-0.529167 -1.12937,0 -1.60914,-0.253104 -1.60914,-0.84891 0,-0.499419 0.10285,-0.515633 1.91823,-0.302422 1.05503,0.12391 4.17756,0.190104 6.93896,0.147099 6.73504,-0.104889 8.3745,0.306354 10.99568,2.758162 3.26457,3.053622 3.30555,8.408945 0.0917,11.983518 -2.65931,2.9578 -8.21665,4.262212 -10.83884,2.544082 -0.68328,-0.4477 -0.74034,-1.158962 -0.0768,-0.957558 0.20009,0.06074 1.23431,0.163415 2.29828,0.228177 3.26436,0.198696 5.52445,-1.054486 6.65928,-3.69246 0.51172,-1.189515 0.57758,-1.730316 0.49206,-4.040455 -0.0862,-2.327577 -0.19093,-2.824457 -0.82298,-3.902972 -0.82077,-1.40054 -1.76176,-2.157062 -3.41671,-2.74691 -1.62478,-0.579093 -5.30949,-0.966986 -6.15002,-0.647418 l -0.68049,0.25872 -0.004,14.492487 c -0.002,8.187064 -0.10826,14.657152 -0.24356,14.870957 -0.2612,0.412762 -3.18321,0.74168 -3.5227,0.396536 z m 25.62675,-0.26748 c -0.0883,-0.230183 -0.1606,-6.883104 -0.1606,-14.78427 0,-15.978081 0.13919,-14.803817 -1.82121,-15.364478 -0.52399,-0.149858 -0.98872,-0.459452 -1.03273,-0.687987 -0.0705,-0.366177 0.49475,-0.412368 4.76039,-0.388989 3.95887,0.0217 4.84042,0.09396 4.84042,0.396779 0,0.203638 -0.47625,0.533376 -1.05833,0.732752 -0.58209,0.199376 -1.20716,0.561536 -1.38906,0.804799 -0.2551,0.341153 -0.33073,3.729732 -0.33073,14.818068 v 14.375772 l -0.67869,0.258034 c -1.10054,0.418428 -2.94358,0.323916 -3.12946,-0.16048 z m 39.65307,0.08779 c -0.067,-0.181901 -0.15255,-6.918581 -0.19013,-14.970399 -0.066,-14.144535 -0.0857,-14.652367 -0.58193,-15.015104 -0.28247,-0.20649 -0.88479,-0.375436 -1.33849,-0.375436 -1.00443,0 -1.88409,-0.57843 -1.59385,-1.048054 0.15935,-0.25784 0.97271,-0.290843 3.54615,-0.143886 1.83665,0.104882 3.51796,0.286965 3.73624,0.404628 0.21828,0.117663 4.38547,5.758614 9.26042,12.535446 4.87495,6.776832 9.01601,12.323187 9.20235,12.325232 0.27134,0.003 0.32403,-2.282815 0.26459,-11.478116 -0.0702,-10.862002 -0.10144,-11.511888 -0.57826,-12.038542 -0.29238,-0.322942 -0.82741,-0.556708 -1.27416,-0.556708 -0.93413,0 -1.79369,-0.425188 -1.79369,-0.887264 0,-0.474267 9.03896,-0.438588 9.19725,0.0363 0.12164,0.364901 -0.98558,0.85096 -1.93843,0.85096 -0.35433,0 -0.88236,0.238125 -1.1734,0.529167 -0.51633,0.51633 -0.52917,0.881944 -0.52917,15.071941 0,19.973557 1.06079,19.823434 -12.23133,1.730983 -5.34479,-7.275007 -9.8394,-13.26782 -9.98802,-13.317362 -0.18147,-0.06049 -0.27023,4.169498 -0.27023,12.877658 0,11.436071 -0.0491,13.016842 -0.41577,13.383507 -0.49939,0.499382 -1.14218,0.541108 -1.31014,0.08505 z"
         id="path2" /></g><g
       id="g1"
       transform="translate(-35.129033,318.49678)"><path
         style="fill:#882f3d"
         d="m -8.0029251,95.922584 c -10.0154519,-2.105651 -19.3184929,-9.022747 -25.2557329,-18.778413 -8.04084,-13.212155 -9.880318,-30.303082 -4.89281,-45.459999 5.341918,-16.233962 17.596048,-27.6673136 31.9355619,-29.7965266 18.0815241,-2.68484806 35.1700861,9.4803996 41.8552741,29.7965266 4.438491,13.488468 3.525172,28.394206 -2.518079,41.096071 -5.75248,12.090716 -16.179561,20.790537 -27.7424924,23.146913 -3.5363506,0.720662 -9.9425835,0.718474 -13.3817217,-0.0046 z m 11.59965,-1.44522 c 15.9830541,-2.409096 29.1379321,-16.989815 32.5850581,-36.116913 0.601015,-3.334857 0.834173,-12.090806 0.413722,-15.536813 -2.493585,-20.437381 -15.558286,-36.1504879 -32.516193,-39.1076995 -2.8678241,-0.5001066 -7.8181712,-0.4974436 -10.7037437,0.00576 -16.9117473,2.949162 -29.9931333,18.6892905 -32.4806993,39.0822785 -0.423306,3.470254 -0.193538,12.259052 0.406699,15.556476 3.595688,19.753069 17.013587,34.145435 33.8705069,36.330334 1.9345319,0.250743 6.0342075,0.146886 8.42465,-0.213421 z m -9.615275,-1.31219 c -14.4568179,-2.38965 -26.1626929,-14.368578 -30.5628059,-31.27572 -1.38724,-5.33038 -1.895964,-13.575376 -1.189082,-19.271712 2.710328,-21.840908 18.219831,-37.96771 36.5143879,-37.96771 18.2956791,0 33.7907271,16.111157 36.5157811,37.96771 0.421546,3.381051 0.360418,10.330651 -0.120719,13.724245 -1.071743,7.559322 -3.675324,14.517112 -7.685733,20.539298 -5.615457,8.432386 -12.858682,13.676564 -21.9624541,15.901069 -2.8372657,0.693285 -8.4930497,0.881405 -11.509375,0.38282 z m 5.55624999,-5.980754 c 0,-1.361013 0.0961671,-2.072847 0.26586753,-1.967966 0.14622713,0.09037 0.75065131,0.878191 1.34316488,1.750706 0.5925135,0.872514 1.2081931,1.542758 1.3681768,1.48943 0.1599838,-0.05333 0.5207417,-0.953181 0.8016844,-1.999674 0.4801265,-1.78844 0.8627278,-2.332198 1.1060873,-1.571985 0.05823,0.181901 0.2959445,1.015338 0.5282539,1.852083 0.3317718,1.194994 0.5343118,1.521354 0.9441563,1.521354 0.6626583,0 0.658121,-0.08952 -0.1560003,-3.077889 -0.3727768,-1.368339 -0.6028784,-2.72387 -0.511337,-3.012292 0.18303,-0.576676 -0.1497943,-0.676063 -0.9069689,-0.270836 -0.3121343,0.16705 -0.684231,1.069813 -1.0905474,2.645834 -0.3409559,1.3225 -0.7571269,2.392267 -0.9306633,2.392267 -0.1726501,0 -0.9392435,-0.9525 -1.70354088,-2.116667 -1.04177231,-1.586813 -1.53582216,-2.116667 -1.97363522,-2.116667 -0.759651,0 -1.0036206,0.262119 -0.6455476,0.693571 0.1576536,0.18996 0.342368,1.332009 0.4104764,2.537885 0.1602946,2.838054 0.2825068,3.383128 0.75853894,3.383128 0.31364292,0 0.39183415,-0.425501 0.39183415,-2.132282 z m -5.17551809,-1.161615 c 0.9587147,-1.37508 1.860564,-2.572732 2.0041095,-2.661448 0.4842318,-0.299272 0.2655633,-0.659239 -0.4004664,-0.659239 -0.4527717,0 -0.6614583,0.145619 -0.6614583,0.461556 0,0.611978 -2.1709965,3.797389 -2.5118274,3.685498 -0.1464637,-0.04808 -0.4075149,-1.073733 -0.5801138,-2.279223 -0.3913959,-2.733645 -0.4669718,-2.926164 -1.1487032,-2.926164 -0.304197,0 -0.4880462,0.105236 -0.4085537,0.233857 0.079492,0.128622 0.3304188,1.527606 0.557614,3.108854 0.2271952,1.581249 0.4631021,3.023826 0.5242376,3.205727 0.2615818,0.778304 0.9892502,0.176963 2.6251617,-2.169418 z m -7.8577438,0.05275 c 0.143385,-0.181901 0.830847,-1.443647 1.527694,-2.80388 1.02615,-2.003027 1.196505,-2.51778 0.896177,-2.707928 -0.20395,-0.129127 -0.48988,-0.23273 -0.635401,-0.230229 -0.331877,0.0057 -2.813273,5.537259 -2.622456,5.846008 0.199086,0.322128 0.530699,0.280786 0.833986,-0.103971 z m -2.287732,-2.724825 c 0.9634,-0.498193 1.824914,-1.840082 1.826255,-2.844565 0.0015,-1.11723 -0.593502,-2.051112 -2.134856,-3.350801 -1.272633,-1.073101 -1.418811,-1.13402 -1.679575,-0.699954 -0.157092,0.261495 -0.967127,1.387026 -1.800077,2.501181 -0.832951,1.114154 -1.51756,2.170374 -1.521355,2.347155 -0.0038,0.176781 0.231227,0.44886 0.522269,0.604621 0.41286,0.220957 0.529166,0.201213 0.529166,-0.08983 0,-0.667306 2.914358,-4.408089 3.434241,-4.408089 0.268108,0 0.807527,0.380367 1.198708,0.845259 0.56846,0.675577 0.681948,1.025754 0.565329,1.744387 -0.314047,1.935245 -2.316723,3.476904 -3.809215,2.932333 -0.822145,-0.29998 -0.746621,-0.06471 0.132291,0.412103 0.943825,0.512034 1.755089,0.513871 2.736819,0.0062 z m 31.571222,-0.349003 c 0.125434,-0.202958 -1.134433,-6.602704 -1.358042,-6.898444 -0.04847,-0.0641 -0.285685,0.08102 -0.527155,0.322493 -0.399499,0.3995 -0.401647,0.481473 -0.02385,0.910293 0.538115,0.61079 1.309011,3.98732 0.959643,4.203242 -0.141597,0.08751 -1.155805,-0.445239 -2.253796,-1.18389 -1.657806,-1.115255 -2.084685,-1.295726 -2.517264,-1.064217 -0.2865043,0.153333 -0.4809537,0.318523 -0.4321102,0.36709 0.4070232,0.404719 5.4514752,3.565494 5.6955872,3.568766 0.173313,0.0023 0.378958,-0.09908 0.456989,-0.225333 z m 4.651855,-4.486823 c 0,-0.265675 -0.299943,-0.764828 -0.666541,-1.109229 -0.366598,-0.344401 -0.624434,-0.752108 -0.572968,-0.906017 0.05358,-0.16023 0.865023,-0.279833 1.898529,-0.279833 2.184789,0 2.693009,-0.537246 0.745895,-0.788495 -1.698487,-0.219166 -2.023194,-0.429369 -2.230725,-1.444083 -0.387011,-1.892271 -1.647,-1.943861 -3.353665,-0.137313 -1.080403,1.143634 -1.148346,1.287994 -0.692082,1.470474 0.278263,0.111289 1.33937,0.978754 2.358016,1.927698 1.922318,1.790784 2.513541,2.088754 2.513541,1.266798 z m -3.110744,-3.368531 c -0.855874,-0.855875 -0.903458,-0.978863 -0.525101,-1.35722 0.92142,-0.92142 2.539413,0.30164 2.198094,1.661566 -0.217307,0.865821 -0.566316,0.80233 -1.672993,-0.304346 z m -20.1741216,2.594807 c -8.428e-4,-0.254662 -0.121778,-1.177396 -0.2687447,-2.050521 -0.4138687,-2.458782 -0.3376343,-8.663213 0.146379,-11.913244 0.8211882,-5.514076 -0.071318,-7.18321 -5.2094221,-9.742481 l -2.7364716,-1.363026 -0.462606,-1.455209 c -0.254433,-0.800364 -0.646143,-2.14474 -0.870467,-2.987501 -0.483628,-1.816943 -1.737157,-3.337035 -3.426069,-4.154623 -0.905758,-0.43847 -1.980255,-0.610852 -5.000926,-0.802298 -4.322023,-0.273923 -7.952495,-0.937765 -11.540091,-2.110137 -3.176377,-1.037992 -3.579991,-1.013207 -2.274482,0.139669 1.939323,1.712588 7.404738,3.359218 13.996495,4.216887 1.717019,0.223406 3.461241,0.581696 3.876048,0.796201 1.269833,0.656657 2.557435,2.436542 3.424432,4.733682 0.929572,2.462934 1.430055,3.019931 4.1297496,4.596069 2.146341,1.253079 3.1145717,2.189353 3.6909301,3.569112 0.3541462,0.847799 0.3711011,1.439686 0.1212661,4.233333 -0.4703726,5.259692 0.059803,10.717778 1.3171918,13.560315 0.5352504,1.210022 1.0896029,1.584307 1.0867878,0.733772 z m 4.3593305,-0.14936 c 0.2206857,-0.336809 0.6647267,-1.557199 0.9867576,-2.711979 0.533663,-1.913677 0.5865317,-2.708759 0.5970401,-8.978766 0.011175,-6.667841 0.029525,-6.904395 0.5973331,-7.700407 0.7071287,-0.991326 1.8457889,-1.87218 3.7424625,-2.895124 1.8127636,-0.977688 2.9870618,-2.357772 3.5642658,-4.188874 0.573901,-1.820625 1.894622,-3.80805 3.040915,-4.575978 0.483604,-0.323977 1.436104,-0.658799 2.116666,-0.744049 8.684933,-1.087903 14.603276,-2.799666 16.440222,-4.755006 0.816181,-0.868785 0.502233,-0.85515 -2.507324,0.108897 -3.659861,1.172358 -7.384341,1.850334 -11.650075,2.12069 -3.445664,0.218382 -3.967853,0.317411 -5.195433,0.985275 -1.983103,1.078906 -2.734686,2.17268 -3.4875607,5.075424 -0.353897,1.364467 -0.8755127,2.791672 -1.1591459,3.171568 -0.2836332,0.379896 -1.3401484,1.049452 -2.3478115,1.487902 -2.7080688,1.178323 -3.6876358,1.83114 -4.5649553,3.042245 -1.17283319,1.619049 -1.40231731,3.106685 -0.96287616,6.241865 0.77137186,5.503332 0.76223926,9.733509 -0.0303736,14.068802 -0.18676431,1.02153 0.23025169,1.147422 0.81989306,0.247515 z m -23.2325769,-1.81475 c 2.844567,-0.796186 3.491029,-1.206781 2.684665,-1.705141 -0.173313,-0.107113 -0.36119,-0.05653 -0.417504,0.112417 -0.184021,0.552063 -4.559049,1.71235 -4.559049,1.209091 0,-0.09071 0.542137,-1.057904 1.204749,-2.149315 1.16687,-1.921993 1.398108,-2.951716 0.71348,-3.177184 -0.181901,-0.05991 -0.330729,0.0048 -0.330729,0.143795 0,0.138992 -0.654844,1.409022 -1.455208,2.822289 -1.422938,2.512595 -1.765959,3.583678 -1.147695,3.583678 0.169132,0 1.657413,-0.377833 3.307291,-0.83963 z m 15.0762999,-1.760935 c -0.8500072,-3.059204 -1.2286043,-6.210907 -1.2286043,-10.227749 0,-3.908637 -0.019188,-4.048453 -0.6488248,-4.727843 -1.4969878,-1.615277 -1.8596838,-0.737882 -1.6612308,4.018674 0.150828,3.615061 1.0078846,7.608632 2.223553,10.360942 1.3715412,3.105212 2.1074092,3.427499 1.3151069,0.575976 z m 12.2146472,-0.243527 c 1.5814706,-3.437395 2.2112126,-6.366116 2.3602204,-10.976598 0.1213608,-3.755053 0.090286,-4.180387 -0.3168313,-4.336612 -0.2960001,-0.113586 -0.6911797,0.06658 -1.1479545,0.52335 -0.6915127,0.691513 -0.6969872,0.728725 -0.7547619,5.130363 -0.056777,4.325638 -0.243429,5.654841 -1.6071873,11.445256 -0.2821053,1.197798 0.5727787,0.156815 1.4665146,-1.785759 z m 19.2991989,-0.860074 c 0.0446,-0.246479 -0.330712,-0.56504 -0.990398,-0.840638 -1.310096,-0.547321 -1.581455,-1.137136 -0.856637,-1.861954 0.690064,-0.690064 1.808168,-0.462625 2.225189,0.452636 0.161851,0.355224 0.395927,0.583038 0.520168,0.506252 0.444107,-0.274473 0.214753,-1.349522 -0.413911,-1.940121 -0.501439,-0.471078 -0.815165,-0.56255 -1.450673,-0.422969 -0.675077,0.148272 -0.914805,0.05726 -1.431518,-0.543452 -0.856665,-0.995932 -1.76314,-0.733939 -2.831073,0.818248 -0.788001,1.145321 -0.846986,1.709811 -0.179753,1.72027 0.173312,0.0027 1.208083,0.595059 2.299489,1.316316 1.969423,1.301496 2.971167,1.557774 3.109117,0.795412 z m -4.18226,-2.869206 c -0.385533,-0.312186 -0.542044,-0.645762 -0.434491,-0.926042 0.361951,-0.943229 2.036801,-0.200097 2.036801,0.90373 0,0.658875 -0.802389,0.670049 -1.60231,0.02231 z m -31.586529,-0.464308 c -1.325743,-3.839049 -1.562527,-5.285689 -1.611655,-9.846458 -0.06283,-5.833062 -0.18947,-5.992462 -5.283881,-6.650957 -3.04648,-0.393783 -6.484587,-1.542734 -9.622156,-3.215542 -1.363122,-0.726755 -2.553747,-1.244726 -2.645833,-1.151046 -0.293683,0.298769 2.803077,2.964573 4.631901,3.987309 2.240125,1.25275 5.465491,2.367204 8.171162,2.823365 l 2.110759,0.355863 0.183794,3.157677 c 0.211566,3.634831 0.904699,6.601353 2.159664,9.243094 0.862544,1.815683 2.226513,3.720306 2.481582,3.465238 0.07094,-0.07094 -0.187959,-1.046786 -0.575337,-2.168543 z m 21.419604,-1.032112 c 1.373367,-2.856818 2.029718,-5.63595 2.214209,-9.375449 l 0.162317,-3.290032 2.116667,-0.352774 c 4.488213,-0.748027 8.745593,-2.673106 11.365421,-5.139156 0.879539,-0.827912 1.529861,-1.575643 1.44516,-1.661625 -0.0847,-0.08598 -1.394389,0.487332 -2.910417,1.274031 -3.15464,1.637008 -6.062852,2.612442 -9.106414,3.054353 -1.164167,0.169031 -2.521534,0.368817 -3.016373,0.443969 -0.497783,0.0756 -1.23651,0.473444 -1.653645,0.890579 l -0.75394,0.75394 v 3.689862 c 0,4.268527 -0.4503902,7.242118 -1.5829109,10.450791 -0.4390868,1.244026 -0.7983395,2.353202 -0.7983395,2.464836 0,0.615698 1.7563757,-1.618475 2.5182654,-3.203325 z m -37.178682,-0.132291 c 1.157706,-0.582084 2.230641,-1.058334 2.3843,-1.058334 0.153659,0 0.528249,0.421803 0.832423,0.937339 0.304174,0.515537 0.601442,0.888941 0.660595,0.829787 0.157539,-0.157538 -2.17713,-5.105834 -2.50444,-5.308123 -0.543146,-0.335683 -0.589673,0.355453 -0.05961,0.885513 1.010614,1.010614 0.718057,1.451005 -1.842433,2.773446 -1.341665,0.692943 -2.38125,1.397694 -2.38125,1.614286 0,0.611 0.65778,0.458689 2.910417,-0.673914 z m 54.239583,-0.949556 c 0,-0.422806 -5.225937,-3.091048 -5.600562,-2.859517 -0.121149,0.07487 -0.216863,0.337468 -0.212697,0.583542 0.0052,0.307665 0.851268,0.832661 2.70881,1.68087 1.48568,0.678405 2.791959,1.177394 2.902842,1.108864 0.110884,-0.06853 0.201607,-0.299721 0.201607,-0.513759 z m -56.650306,-2.953049 c 0.346117,-0.28704 0.657811,-0.99874 0.820094,-1.872546 0.303773,-1.635653 0.431653,-1.897766 0.925887,-1.897766 0.689474,0 1.251142,0.838311 1.092642,1.63081 -0.114992,0.574961 -0.05074,0.75044 0.274792,0.75044 0.342667,0 0.394311,-0.191983 0.266901,-0.992188 -0.15867,-0.996536 -1.180965,-2.182812 -1.881077,-2.182812 -0.76874,0 -1.527225,0.977016 -1.841383,2.371912 -0.176731,0.784705 -0.522603,1.553697 -0.768606,1.708871 -0.695979,0.439013 -1.359634,-0.137035 -1.455436,-1.263308 -0.09751,-1.146335 -0.579341,-1.305971 -0.579341,-0.191942 0,0.988709 1.164008,2.40155 1.978583,2.40155 0.334745,0 0.85987,-0.208359 1.166944,-0.463021 z m 58.195337,-0.740053 c 0.343776,-0.754508 0.401215,-2.215644 0.104564,-2.659921 -0.342274,-0.512602 -1.331399,-0.903167 -1.828865,-0.722144 -0.265204,0.09651 -0.929015,0.572328 -1.475138,1.057385 -1.064162,0.945171 -1.494464,1.066798 -1.996842,0.564421 -0.469736,-0.469736 -0.386453,-1.125584 0.211667,-1.666875 0.625286,-0.565877 0.680359,-0.926042 0.141601,-0.926042 -0.554026,0 -0.935351,0.853348 -0.935351,2.093173 0,0.843275 0.137235,1.159548 0.648503,1.494544 0.822042,0.538623 1.559042,0.320797 2.857988,-0.844698 1.062758,-0.953572 1.493119,-1.077159 1.996842,-0.573436 0.426665,0.426665 0.387202,1.287888 -0.08779,1.915883 -0.43489,0.574975 -0.499661,0.941618 -0.166347,0.941618 0.122163,0 0.360288,-0.303259 0.529168,-0.673908 z m -28.34921691,-9.167874 c 1.86093391,-1.074028 2.63792141,-1.790419 3.31396431,-3.055511 0.8417819,-1.575243 1.0072678,-2.622567 0.781901,-4.948481 l -0.1781375,-1.838482 -1.5875,-0.471897 c -0.8851045,-0.263105 -2.20100787,-0.939631 -2.97410301,-1.529032 l -1.38660299,-1.057135 -0.8623553,0.751136 c -1.0361547,0.90252 -2.2905281,1.567785 -3.7505761,1.98914 l -1.0805293,0.31183 -0.2289693,1.772047 c -0.4657996,3.60493 0.4981791,5.802133 3.3352145,7.601977 1.9399365,1.230716 3.1006469,1.349964 4.61769369,0.474408 z m -3.15987639,-2.215804 c -1.3057359,-0.708373 -0.7689757,-1.174463 1.3445563,-1.16753 1.92172552,0.0063 2.311785,0.547623 0.92179615,1.279256 -0.76022119,0.400149 -1.37905255,0.369642 -2.26635245,-0.111726 z m 0.5953125,-2.49855 c -0.3527778,-0.231584 -0.3527778,-0.28948 0,-0.521064 0.2182813,-0.143292 0.5159375,-0.260531 0.6614584,-0.260531 0.14552079,0 0.44317704,0.117239 0.66145829,0.260531 0.35277778,0.231584 0.35277778,0.28948 0,0.521064 -0.21828125,0.143293 -0.5159375,0.260532 -0.66145829,0.260532 -0.1455209,0 -0.4431771,-0.117239 -0.6614584,-0.260532 z m -3.8779713,-3.05143 c -0.3335953,-0.869336 1.443616,-1.446869 2.4411181,-0.79328 0.9852012,0.645528 0.6607395,1.059452 -0.9020065,1.150712 -1.0804329,0.06309 -1.4068275,-0.01271 -1.5391116,-0.357432 z m 6.07563628,-0.02549 c -0.20096912,-0.523717 0.56029802,-1.152364 1.39546812,-1.152364 0.7499169,0 1.8415985,0.877381 1.5927246,1.280067 -0.3080396,0.498419 -2.7886069,0.39241 -2.98819272,-0.127703 z m -8.81629978,3.411699 c -0.00485,-0.871768 -0.1688729,-1.126538 -1.1111188,-1.725903 -0.9532096,-0.60634 -1.0014966,-0.58949 -1.0014966,0.349474 0,0.532149 0.238088,1.027036 0.7000937,1.455208 0.9270222,0.859135 1.4175919,0.831775 1.4125217,-0.07878 z m 15.6813452,0.202622 c 0.7415164,-0.583277 1.1616747,-1.791883 0.7619039,-2.191654 -0.3979633,-0.397963 -1.800704,0.73523 -1.9633544,1.586081 -0.2386904,1.248628 0.1407817,1.439895 1.2014505,0.605573 z m -23.6801116,-0.20135 c 0.05971,-0.181202 -0.234778,-0.672802 -0.654422,-1.092447 -0.577443,-0.577442 -1.113527,-0.806648 -2.204437,-0.942519 -4.14515,-0.516272 -8.913109,-1.809295 -12.338014,-3.345946 -2.728933,-1.22439 -2.652134,-0.602099 0.149352,1.210173 2.935112,1.898715 7.912305,3.798797 11.673256,4.456357 1.258341,0.220007 3.263578,0.05027 3.374265,-0.285618 z m 35.027236,0.04322 c 2.542111,-0.480975 6.440587,-1.868423 9.009328,-3.206376 1.828267,-0.95227 3.897434,-2.557526 3.639303,-2.823364 -0.08071,-0.08312 -1.236881,0.31886 -2.569271,0.893285 -2.859449,1.232776 -7.464858,2.494877 -10.730189,2.940582 -2.58157,0.352374 -3.619422,0.917877 -3.619422,1.972143 0,0.569868 0.115987,0.642255 1.029105,0.642255 0.566008,0 2.024524,-0.188336 3.241146,-0.418525 z m -27.0805783,-4.711909 c -0.041872,-0.277236 -0.3137457,-0.635288 -0.604163,-0.79567 -0.2904173,-0.160383 -0.8445783,-0.499964 -1.2314687,-0.754626 -0.979462,-0.644707 -1.283208,-0.580356 -1.283208,0.271858 0,0.966633 0.664487,1.880247 1.6875924,2.320299 0.7271346,0.312751 0.8667114,0.301831 1.166664,-0.09127 0.1873931,-0.245588 0.3064556,-0.673353 0.2645833,-0.950589 z m 16.8836602,0.2621 c 0.8657506,-0.86575 1.1610702,-1.817996 0.6598785,-2.127749 -0.1318377,-0.08148 -0.8462127,0.166522 -1.5875,0.551115 -1.1136029,0.577758 -1.3477952,0.822994 -1.3477952,1.41135 0,1.384904 0.9842988,1.456402 2.2754167,0.165284 z m -13.3540853,-3.473424 c 1.5977752,-0.544417 3.1411686,-1.842595 3.1411686,-2.642099 0,-0.344619 -0.1055353,-0.691805 -0.234523,-0.771524 -0.1289876,-0.07972 -1.051722,0.228122 -2.0505208,0.684091 -2.1505281,0.981753 -4.3307562,1.154447 -5.3698414,0.425339 -0.757415,-0.531464 -1.340948,-0.220119 -1.340948,0.715465 0,1.662374 3.1387901,2.51412 5.8546646,1.588728 z m 12.5915649,-0.291917 c 0.8156326,-0.606731 1.0750694,-1.51407 0.597467,-2.089546 -0.2676172,-0.322459 -0.4289145,-0.313396 -1.1447897,0.06432 -1.2940777,0.682797 -3.204316,0.540609 -5.3322838,-0.396907 -1.33244095,-0.587032 -1.93581867,-0.735051 -2.17777366,-0.534246 -0.47507092,0.394273 -0.4262615,0.592699 0.38210908,1.553393 1.17398928,1.395207 3.05763598,2.138399 5.16172948,2.036557 1.2855792,-0.06222 1.9811777,-0.237559 2.5135416,-0.633573 z m -20.7185395,-1.155909 c 0.08068,-0.363802 0.850111,-1.639171 1.709849,-2.834152 2.7979956,-3.889038 2.7832327,-6.065701 -0.06825,-10.063477 -2.996986,-4.201764 -4.623394,-7.259169 -6.122923,-11.510184 -0.397822,-1.127787 -0.826936,-2.050521 -0.953587,-2.050521 -0.126652,0 -0.230275,0.667047 -0.230275,1.482327 0,2.673925 2.189851,8.094199 5.288808,13.090746 1.734217,2.796135 1.999321,3.678878 1.617383,5.385559 -0.167377,0.747919 -0.777644,2.129365 -1.35615,3.069881 -0.861329,1.400323 -1.051854,1.952021 -1.051976,3.046175 -1.6e-4,1.444074 0.511898,2.371597 0.838692,1.519173 0.09996,-0.260738 0.247754,-0.771725 0.328433,-1.135527 z m 25.105722,-0.31813 c -0.0065,-0.830507 -0.339433,-1.763006 -1.234722,-3.458657 -1.0455107,-1.980166 -1.2256734,-2.544357 -1.2250933,-3.836458 5.708e-4,-1.27123 0.1546762,-1.770211 0.9581393,-3.10238 3.301257,-5.473596 5.173779,-9.536428 5.816953,-12.621108 0.38489,-1.845942 0.331551,-3.121601 -0.130523,-3.121601 -0.12311,0 -0.488864,0.803672 -0.812788,1.785937 -1.007808,3.056074 -3.352687,7.654041 -5.4513554,10.689319 -2.4489109,3.541829 -2.762356,4.258076 -2.762356,6.312203 0,1.830616 0.4354482,2.854509 2.2790618,5.358881 0.6534916,0.887705 1.3258756,2.12889 1.4941866,2.758188 0.268083,1.002331 0.35384,1.096361 0.691734,0.758467 0.221916,-0.221917 0.381912,-0.868582 0.376763,-1.522791 z m -28.713117,0.435419 c 0.915942,-0.641551 0.785053,-2.071823 -0.363245,-3.969313 -2.265423,-3.743468 -3.504099,-7.007766 -4.203254,-11.07688 -0.223135,-1.298657 -0.456509,-2.412004 -0.518609,-2.474103 -0.0621,-0.0621 -0.253779,0.405125 -0.425955,1.038278 -0.722102,2.655426 0.304789,8.053294 2.297722,12.078017 0.670013,1.35309 1.136157,2.543715 1.035874,2.645833 -0.100283,0.102119 -0.739459,0.374542 -1.420392,0.605384 -0.687113,0.232938 -1.238061,0.585007 -1.238061,0.791152 0,0.755031 3.861948,1.043828 4.83592,0.361632 z m 35.116163,0.179538 c 1.169869,-0.25016 0.968734,-0.853287 -0.44431,-1.332322 -0.680934,-0.230842 -1.313943,-0.497098 -1.406689,-0.59168 -0.09275,-0.09458 0.44147,-1.421061 1.187144,-2.947733 1.695888,-3.472114 2.485562,-6.933282 2.322912,-10.181403 -0.06028,-1.203732 -0.249864,-2.328872 -0.421305,-2.500313 -0.203219,-0.203219 -0.31171,-0.213266 -0.31171,-0.02887 0,0.874746 -0.887999,5.229882 -1.36655,6.702158 -0.645032,1.98446 -2.016129,4.86959 -3.172623,6.675992 -1.738432,2.715367 -1.170729,4.463822 1.430319,4.405205 0.763984,-0.01722 1.74625,-0.107684 2.182812,-0.201036 z m -22.8803601,-3.231842 c 2.0227538,-1.078116 2.8396867,-1.929213 2.3815891,-2.481187 -0.5467709,-0.658819 -1.5597018,-0.470113 -3.5089332,0.653702 -1.00961,0.582083 -1.9296796,1.058333 -2.0445991,1.058333 -0.1149195,0 -0.3571641,0.178594 -0.5383215,0.396875 -0.2627804,0.316631 -0.2627804,0.477119 0,0.79375 0.5298558,0.638437 2.0444799,0.466381 3.7102647,-0.421473 z m 10.2597353,0.500848 c 0.174625,-0.174625 0.3175,-0.400054 0.3175,-0.500954 0,-0.100899 -0.9822656,-0.74772 -2.1828125,-1.437379 -1.5177205,-0.87186 -2.5027922,-1.263388 -3.23297674,-1.284983 -2.05363946,-0.06074 -1.34033155,1.279837 1.49688634,2.813212 1.4198142,0.767339 3.0576611,0.953846 3.6014029,0.410104 z m -20.3293092,-3.898439 c 0.514983,-0.962253 0.273424,-1.93439 -1.050796,-4.228865 -1.66939,-2.892553 -2.990557,-6.01471 -3.856936,-9.114645 -0.96717,-3.460568 -0.893242,-3.292531 -1.204567,-2.737938 -0.373303,0.664997 0.133418,4.525175 0.980467,7.469149 1.084901,3.770647 3.793352,9.124071 4.616131,9.124071 0.132995,0 0.36506,-0.230297 0.515701,-0.511772 z m 28.785584,-1.298007 c 2.153327,-3.489587 3.901711,-8.790269 4.212209,-12.770412 0.182231,-2.33594 -0.24097,-3.076475 -0.706719,-1.236647 -0.992698,3.921411 -2.892734,8.504231 -4.926564,11.882699 -0.921573,1.530858 -1.102713,2.525968 -0.622975,3.422367 0.458718,0.857122 0.878781,0.590375 2.044049,-1.298007 z m -16.6054414,-8.508971 c 0.479068,-0.479068 0.5291666,-0.881944 0.5291666,-4.255382 0,-2.862419 -0.076668,-3.701077 -0.3307291,-3.617774 -0.4318678,0.141604 -0.9472868,1.720067 -1.2426221,3.805511 -0.1299337,0.917497 -0.3142031,1.794319 -0.4094877,1.948493 -0.1075555,0.174028 -0.558211,-0.02458 -1.1885337,-0.523808 -1.2433349,-0.98474 -2.9025713,-1.70768 -3.2111377,-1.399113 -0.1268878,0.126888 0.6781541,1.18831 1.8207556,2.400609 2.2240956,2.359763 2.9989037,2.675148 4.0325881,1.641464 z m 6.4151298,-1.589571 c 1.1283453,-1.165306 2.0515368,-2.249776 2.0515368,-2.409933 0,-0.511265 -1.3834223,0.0017 -2.9617633,1.098166 -0.8286053,0.575638 -1.5588489,0.957912 -1.6227635,0.849497 -0.063915,-0.108414 -0.2626404,-1.090086 -0.4416128,-2.181492 -0.17897233,-1.091407 -0.48445029,-2.371329 -0.67883986,-2.844271 -0.68667989,-1.670667 -0.90960385,-0.985826 -0.90960385,2.79438 0,3.311829 0.0505549,3.708541 0.53947355,4.233334 1.00302136,1.076617 1.77706056,0.780419 4.02357296,-1.539681 z m 222.9786236,57.603771 c -0.65131,-0.329122 -1.4016,-1.344739 -3.81472,-5.163737 -1.19367,-1.889105 -1.24486,-1.932018 -2.20936,-1.852084 l -0.98738,0.08183 -0.13229,3.307292 -0.1323,3.307292 -0.85574,0.0826 -0.85575,0.0826 -0.0703,-7.490934 c -0.0702,-7.483462 -0.0709,-7.491194 -0.66561,-7.752111 -0.32742,-0.143648 -0.59531,-0.325207 -0.59531,-0.403465 0,-0.07826 1.66305,-0.114592 3.69566,-0.08074 4.1347,0.06886 4.96682,0.318266 5.84005,1.750416 1.03606,1.699206 0.48745,4.04742 -1.33475,5.713072 l -1.06181,0.970591 1.67511,2.743216 c 0.9213,1.508769 2.04803,3.187418 2.50383,3.730331 1.08128,1.287926 0.58304,1.773447 -0.99934,0.973831 z m -4.32011,-8.108255 c 1.36412,-0.619354 1.9109,-1.42192 2.10915,-3.095792 0.18168,-1.533994 -0.34728,-3.036758 -1.27267,-3.615623 -0.87373,-0.546547 -2.84014,-0.799844 -3.29282,-0.424154 -0.50232,0.416886 -0.53586,7.27168 -0.0366,7.473147 0.64455,0.260083 1.40269,0.157419 2.49291,-0.337578 z m -148.741352,7.747401 c -2.743078,-1.441557 -3.45661,-3.368978 -3.706714,-10.012719 -0.157976,-4.196442 -0.207899,-4.528557 -0.744847,-4.955055 -0.557928,-0.443162 -0.511309,-0.457317 1.524889,-0.463021 l 2.100411,-0.0059 -0.579057,0.539474 c -0.520742,0.485145 -0.577895,0.798226 -0.567524,3.108854 0.03359,7.48314 0.704108,10.000866 2.963254,11.1267 2.151985,1.07243 4.307592,0.24637 5.510614,-2.11175 0.600565,-1.177204 1.022295,-4.77465 1.032773,-8.809767 0.0061,-2.340196 -0.05633,-2.696005 -0.568461,-3.241146 l -0.575287,-0.612365 h 1.652824 1.652824 l -0.54837,0.69714 c -0.467492,0.594319 -0.549047,1.072352 -0.552955,3.241146 -0.0097,5.359992 -0.717898,8.954104 -2.056042,10.433848 -1.301902,1.439668 -4.754773,2.00185 -6.538332,1.064544 z m 50.469272,0.240975 -2.71198,-0.08575 v -5.809336 c 0,-5.52279 -0.0261,-5.825636 -0.52917,-6.139806 -0.29104,-0.181758 -0.5291,-0.391126 -0.52903,-0.465262 7e-5,-0.07414 1.62621,-0.132383 3.61364,-0.129437 3.45255,0.0051 3.62495,0.03099 3.87024,0.580704 0.1412,0.316441 0.17346,0.79028 0.0717,1.052977 -0.16555,0.427281 -0.24118,0.400931 -0.71744,-0.249975 -0.48338,-0.660621 -0.68608,-0.727604 -2.20181,-0.727604 -1.96128,0 -1.99061,0.03899 -1.99061,2.645833 0,0.994843 0.0723,1.997136 0.1606,2.227319 0.22692,0.591343 2.66517,0.577137 3.3243,-0.01937 0.46226,-0.418346 0.48385,-0.382077 0.48385,0.812953 v 1.250836 l -0.69714,-0.54837 c -0.77519,-0.609764 -2.44474,-0.740243 -2.95411,-0.23087 -0.1958,0.195798 -0.3175,1.156931 -0.3175,2.507442 0,2.038835 0.0452,2.219586 0.65569,2.619565 0.5181,0.339474 0.99388,0.390371 2.26744,0.242559 1.34896,-0.156564 1.65881,-0.290331 1.90033,-0.820399 0.38774,-0.851011 0.73279,-0.800394 0.73279,0.107499 0,0.895803 -0.44555,1.395324 -1.1774,1.320034 -0.29831,-0.03069 -1.76278,-0.09439 -3.25437,-0.141548 z m 15.28408,-0.327425 c -0.28862,-0.288624 -1.18124,-1.542383 -1.98359,-2.786129 -0.80235,-1.243746 -1.63929,-2.330606 -1.85985,-2.415244 -0.85369,-0.327593 -1.1663,0.402389 -1.24458,2.9063 l -0.0757,2.422971 -0.7276,0.08372 -0.72761,0.08372 v -5.687217 c 0,-4.81742 -0.0636,-5.750806 -0.41577,-6.102991 -0.22868,-0.228676 -0.53336,-0.415774 -0.67707,-0.415774 -0.14372,0 -0.20495,-0.09118 -0.13608,-0.202623 0.0689,-0.111442 1.49341,-0.179846 3.16563,-0.152009 4.29783,0.07155 5.20704,0.617504 5.20704,3.126698 0,1.078681 -0.13621,1.364979 -1.18071,2.481632 l -1.18071,1.262278 1.6988,2.540386 c 0.93435,1.397213 1.82286,2.617052 1.97447,2.710753 0.53155,0.328515 0.26813,0.668302 -0.5181,0.668302 -0.43875,0 -1.02844,-0.234697 -1.31852,-0.524773 z m -2.29541,-6.368581 c 1.40732,-1.106999 1.47824,-4.284757 0.11035,-4.944952 -0.97985,-0.472919 -1.84326,-0.586198 -2.36003,-0.309635 -0.42132,0.225487 -0.48639,0.607096 -0.48639,2.852736 0,1.425835 0.0794,2.671802 0.17639,2.768816 0.37161,0.371603 1.89915,0.152609 2.55968,-0.366965 z m 7.91341,6.498895 c -0.84902,-0.36902 -1.17127,-0.932083 -0.52916,-0.924607 0.1819,0.0021 0.84798,0.183998 1.48018,0.404178 1.97849,0.68906 3.71607,-0.04267 4.13755,-1.742397 0.2308,-0.930734 -0.53394,-1.824541 -2.42587,-2.835309 -0.84602,-0.451988 -1.942,-1.239794 -2.43552,-1.750681 -1.76382,-1.825922 -1.31217,-4.418309 0.93323,-5.356496 0.90792,-0.379357 2.70399,-0.474172 3.73728,-0.197293 0.64808,0.173659 1.02354,1.13466 0.73545,1.882409 -0.16454,0.427062 -0.20067,0.421894 -0.4583,-0.06555 -0.47582,-0.900255 -1.05947,-1.190625 -2.39316,-1.190625 -1.01088,0 -1.42267,0.138291 -1.93381,0.649432 -1.30791,1.307912 -0.59754,2.521761 2.33644,3.992427 2.31039,1.158084 3.09955,2.19075 3.09955,4.055952 0,2.593105 -3.47916,4.297601 -6.28386,3.078564 z m 47.88959,0.214318 -1.65365,-0.109693 v -5.561019 c 0,-5.626457 -0.14252,-6.584564 -0.97945,-6.584564 -0.23741,0 -0.35163,-0.08003 -0.25382,-0.177837 0.0978,-0.09781 1.82157,-0.17286 3.83057,-0.166779 3.05542,0.0092 3.8448,0.09687 4.8272,0.535839 2.12071,0.947597 3.33788,2.580192 3.60497,4.835381 0.46917,3.96138 -2.10187,7.040297 -6.05399,7.249894 -0.9175,0.04866 -2.41233,0.03911 -3.32183,-0.02122 z m 4.97102,-0.944338 c 1.84111,-0.928418 2.50353,-2.350997 2.49486,-5.357813 -0.009,-3.195333 -0.82476,-4.656246 -3.00745,-5.387308 -1.18302,-0.396237 -3.80471,-0.386101 -4.20708,0.01627 -0.22551,0.22551 -0.3175,1.831523 -0.3175,5.543103 0,5.985927 -0.0938,5.759373 2.39133,5.773019 1.00609,0.0055 1.83526,-0.178519 2.64584,-0.587267 z m 36.39413,0.708222 c -3.2006,-1.172679 -4.82963,-4.577436 -3.86004,-8.067701 0.34702,-1.249205 1.91149,-3.0425 3.24999,-3.725353 2.27231,-1.159242 5.43316,-0.867919 7.47421,0.688866 2.92701,2.232536 2.93348,7.838835 0.0116,10.067444 -1.831,1.396573 -4.70922,1.830557 -6.87578,1.036744 z m 3.94165,-0.408815 c 2.72522,-0.756572 4.10388,-4.68938 2.89135,-8.247971 -1.15424,-3.387484 -5.30122,-4.34069 -7.63689,-1.75538 -1.13832,1.259977 -1.56357,2.785115 -1.40426,5.036225 0.27535,3.890637 2.76989,5.90545 6.1498,4.967126 z m -150.765311,0.3841 c -0.09701,-0.09701 -0.176389,-2.71538 -0.176389,-5.818592 0,-5.355657 -0.02687,-5.658986 -0.529167,-5.972673 -0.291041,-0.181758 -0.529166,-0.436376 -0.529166,-0.565818 0,-0.304426 2.394358,-0.03846 2.612411,0.290192 0.613322,0.924396 6.043161,8.254648 6.466246,8.729396 0.287794,0.322937 0.625018,0.524269 0.749386,0.447406 0.324792,-0.200733 0.28156,-7.977226 -0.04777,-8.592584 -0.150641,-0.281475 -0.455324,-0.511772 -0.677073,-0.511772 -0.22175,0 -0.329597,-0.119063 -0.23966,-0.264584 0.161866,-0.261904 3.042709,-0.387158 3.042709,-0.132291 0,0.07276 -0.238125,0.370416 -0.529167,0.661458 -0.49635,0.49635 -0.529167,0.881945 -0.529167,6.217709 0,7.597097 0.231674,7.585185 -5.145861,0.264583 -1.710337,-2.328333 -3.216733,-4.273021 -3.347546,-4.321528 -0.134867,-0.05001 -0.237843,1.859395 -0.237843,4.410131 0,5.006374 -0.151037,5.889874 -0.881944,5.158967 z m 14.828811,0.01215 c -0.10369,-0.103695 -0.18853,-2.689396 -0.18853,-5.746002 0,-4.799983 -0.0597,-5.623414 -0.43789,-6.041319 -0.42014,-0.46425 -0.36487,-0.483855 1.36393,-0.483855 1.72058,0 1.78231,0.02154 1.36933,0.477875 -0.36679,0.405297 -0.44334,1.339581 -0.50402,6.151563 l -0.0716,5.673688 -0.67136,0.07829 c -0.36925,0.04306 -0.7562,-0.0065 -0.8599,-0.110243 z m 9.88732,-0.431071 c -1.88721,-4.888967 -4.62484,-11.216507 -4.92572,-11.384886 -0.2132,-0.119311 -0.38763,-0.330076 -0.38763,-0.468366 0,-0.367575 1.67454,-0.307308 2.20316,0.07929 0.24873,0.181901 1.25844,2.473854 2.24381,5.09323 1.09262,2.904487 1.92954,4.7625 2.14521,4.7625 0.21238,0 1.04295,-1.770805 2.07948,-4.433563 1.67649,-4.306735 1.71221,-4.448648 1.24859,-4.960937 -0.47086,-0.520298 -0.45896,-0.527376 0.88666,-0.527376 1.28841,0 1.79476,0.307225 1.0055,0.610092 -0.19713,0.07565 -1.28258,2.4994 -2.41211,5.38612 -2.31659,5.920461 -2.58466,6.439205 -3.32753,6.439205 -0.30476,0 -0.62719,-0.252755 -0.75942,-0.595312 z m 43.02935,0.431071 c -0.1037,-0.103695 -0.18854,-2.689396 -0.18854,-5.746002 0,-4.799983 -0.0597,-5.623414 -0.43788,-6.041319 -0.42014,-0.46425 -0.36488,-0.483855 1.36392,-0.483855 1.72059,0 1.78232,0.02154 1.36934,0.477875 -0.36679,0.405297 -0.44334,1.339581 -0.50403,6.151563 l -0.0716,5.673688 -0.67136,0.07829 c -0.36924,0.04306 -0.7562,-0.0065 -0.85989,-0.110243 z m 9.27548,-5.590446 -0.0713,-5.754688 -1.90288,-0.07743 c -1.68907,-0.06873 -1.93538,-0.0167 -2.19212,0.463021 -0.15908,0.297246 -0.40411,0.540448 -0.54452,0.540448 -0.36595,0 -0.31604,-1.51871 0.0575,-1.749574 0.17203,-0.106317 2.76164,-0.183317 5.75469,-0.171112 4.35637,0.01776 5.44191,0.09279 5.44191,0.376126 0,0.261537 -0.58491,0.37424 -2.24053,0.431714 -1.38195,0.04797 -2.31825,0.200058 -2.44334,0.396875 -0.11155,0.175502 -0.20464,2.789643 -0.20687,5.8092 l -0.004,5.490104 h -0.78859 -0.78859 z m 6.94015,5.585558 c 0,-0.113264 1.07156,-2.662958 2.38125,-5.665987 1.30969,-3.003029 2.38125,-5.77614 2.38125,-6.162468 0,-0.571111 0.12251,-0.702416 0.65536,-0.702416 0.38997,0 0.81016,0.241068 1.03763,0.595313 0.48252,0.751409 4.92159,11.426142 4.92159,11.835043 0,0.181934 -0.33844,0.270016 -0.84633,0.220262 -0.79558,-0.07794 -0.90028,-0.217776 -1.74587,-2.331868 -0.49474,-1.236927 -1.03663,-2.336432 -1.20419,-2.443344 -0.54264,-0.346239 -4.05195,-0.231843 -4.36238,0.142204 -0.15734,0.189581 -0.68167,1.290909 -1.16519,2.447396 -0.68376,1.635455 -1.00955,2.12149 -1.46612,2.187251 -0.32285,0.0465 -0.587,-0.0081 -0.587,-0.121386 z m 7.02765,-5.730793 c 0.1933,-0.503733 -1.09351,-3.75737 -1.48604,-3.75737 -0.39406,0 -1.92867,3.4748 -1.69884,3.84667 0.24433,0.395339 3.02887,0.317264 3.18488,-0.0893 z m 27.89735,0.396928 c 0,-5.202159 -0.0333,-5.580437 -0.54837,-6.235283 l -0.54837,-0.69714 h 1.73899 c 1.63039,0 2.2382,0.280989 1.34731,0.622856 -0.32616,0.125161 -0.40362,1.114703 -0.46302,5.915287 l -0.0713,5.764983 -0.72761,0.08372 -0.7276,0.08372 z m 40.6529,5.302099 c -0.0683,-0.110492 0.0411,-2.223851 0.24301,-4.696354 0.51437,-6.297802 0.50099,-6.934652 -0.15008,-7.141293 -0.29104,-0.09237 -0.52916,-0.27899 -0.52916,-0.414704 0,-0.342207 1.76852,-0.310091 2.4304,0.04413 0.33227,0.177824 1.46258,2.199425 2.90801,5.20108 1.98987,4.132243 2.42001,4.851185 2.71494,4.537757 0.19275,-0.204839 1.20154,-2.396497 2.24176,-4.870351 1.04021,-2.473854 2.08915,-4.646745 2.33095,-4.828646 0.51118,-0.384533 2.35305,-0.445456 2.57571,-0.08519 0.0835,0.135044 -0.0771,0.31817 -0.35682,0.406947 -0.27971,0.08878 -0.56669,0.312864 -0.63772,0.497972 -0.071,0.185107 0.16005,2.703785 0.51351,5.59706 0.35346,2.893276 0.58291,5.416198 0.50988,5.606495 -0.125,0.325767 -1.73687,0.512346 -1.73687,0.201049 0,-0.341592 -0.81327,-7.473204 -0.94144,-8.255578 -0.0775,-0.472942 -0.23991,-0.859896 -0.36095,-0.859896 -0.12105,0 -0.95745,1.711859 -1.85869,3.80413 -1.69623,3.937916 -2.2367,4.927121 -2.69203,4.927121 -0.14677,0 -1.20733,-1.964532 -2.3568,-4.365625 -1.14948,-2.401094 -2.19955,-4.365626 -2.3335,-4.365626 -0.27203,0 -0.47483,1.500727 -0.73299,5.423959 -0.0957,1.455208 -0.2737,2.913724 -0.39543,3.241146 -0.21188,0.569917 -1.11785,0.827787 -1.38569,0.394417 z m 17.73193,0.0025 c -0.0656,-0.109141 0.93938,-2.618523 2.23334,-5.576405 1.29397,-2.957882 2.35266,-5.726085 2.35266,-6.151563 0,-0.627058 0.11277,-0.772828 0.59532,-0.769543 0.32742,0.0022 0.72891,0.09152 0.8922,0.198437 0.23034,0.150811 3.84726,8.509996 5.14994,11.902199 0.20927,0.544932 0.15304,0.595312 -0.66442,0.595312 -0.87223,0 -0.91553,-0.05376 -1.85913,-2.307894 -0.53136,-1.269342 -1.10881,-2.398612 -1.28324,-2.50949 -0.53794,-0.341966 -4.06031,-0.244223 -4.36157,0.12103 -0.15003,0.181901 -0.60002,1.164167 -0.99998,2.182813 -0.39995,1.018646 -0.84214,2.000911 -0.98263,2.182812 -0.28284,0.366198 -0.88704,0.440726 -1.07249,0.132292 z m 6.86899,-5.747945 c 0.20641,-0.537895 -1.03921,-3.71091 -1.45678,-3.71091 -0.39044,0 -1.85696,3.27485 -1.68838,3.770313 0.16909,0.496991 2.95182,0.444432 3.14516,-0.0594 z m -95.61829,-8.745022 c -1.44633,-0.974019 -1.67194,-1.354881 -0.96359,-1.626702 0.28329,-0.108708 0.86914,0.285273 1.78279,1.198929 1.58405,1.584053 1.19751,1.785902 -0.8192,0.427773 z m -98.355322,-8.356038 c -2.470208,-0.325668 -5.423141,-1.150822 -7.027152,-1.963636 -1.314489,-0.666102 -1.509194,-0.982711 -1.050492,-1.708193 0.202612,-0.32045 0.385496,-0.336905 0.988136,-0.0889 6.989883,2.876513 10.014216,3.297874 13.950421,1.94362 3.551985,-1.222062 5.829821,-3.820513 6.160866,-7.028036 0.220792,-2.139267 -0.08753,-3.198206 -1.320721,-4.536062 -1.194175,-1.295527 -2.305436,-1.916212 -7.718237,-4.310957 -7.660847,-3.389331 -9.608003,-4.675356 -10.880241,-7.185998 -1.47917,-2.919 -1.389547,-7.088584 0.21716,-10.103075 2.453352,-4.60296 8.295989,-6.423582 16.734427,-5.214611 3.848806,0.551417 3.571875,0.231648 3.571875,4.124416 0,2.55089 -0.07783,3.310048 -0.330729,3.226075 -0.340002,-0.112894 -0.530628,-0.589132 -0.9921,-2.478552 -0.943603,-3.863418 -7.915632,-5.323225 -13.010321,-2.724109 -1.814206,0.925539 -3.578464,2.774787 -4.179278,4.380606 -1.029117,2.75056 -0.513705,4.906108 1.647579,6.890491 1.420382,1.304123 2.581608,1.912752 7.207557,3.777663 6.58057,2.652901 9.573303,4.65305 10.915577,7.295268 0.783746,1.542777 1.210954,3.970408 1.020076,5.796635 -0.683474,6.539128 -7.804756,10.9752 -15.904403,9.907358 z m 43.303472,-0.473224 c -0.16906,-0.104481 -1.44245,-2.976341 -2.82976,-6.381911 -1.38732,-3.405571 -2.66753,-6.284168 -2.84493,-6.396884 -0.57145,-0.363099 -11.1483,-0.255909 -11.61282,0.117689 -0.22616,0.181901 -1.44438,2.890573 -2.70715,6.019271 -1.28659,3.18772 -2.536731,5.892098 -2.843665,6.151563 -0.694022,0.58669 -2.076605,0.624219 -2.076605,0.05637 0,-0.223659 2.744749,-6.742331 6.09944,-14.485938 6.29029,-14.519816 6.19819,-14.253155 5.66255,-16.394389 l -0.18201,-0.727605 h 1.87613 c 1.78077,0 1.89491,0.03698 2.24546,0.727605 0.67605,1.33189 12.60885,30.388838 12.60885,30.70317 0,0.17003 -0.26789,0.363232 -0.59532,0.429338 -1.42243,0.287187 -2.51482,0.35808 -2.80017,0.181723 z m -6.51198,-14.602651 c 0.24032,-0.388842 -4.39672,-12.186054 -4.74433,-12.070183 -0.34017,0.113392 -5.19195,11.211456 -5.19195,11.876188 0,0.448716 0.33593,0.481894 4.87917,0.481894 3.23081,0 4.93929,-0.09726 5.05711,-0.287899 z m 62.03038,14.583054 -5.95312,-0.139946 -0.13229,-14.86973 c -0.096,-10.79232 -0.21666,-14.954053 -0.43996,-15.177246 -0.16921,-0.169134 -0.87868,-0.414195 -1.5766,-0.544579 -1.44923,-0.270746 -1.94032,-0.614694 -1.50262,-1.052396 0.21138,-0.211377 1.0547,-0.208581 3.08705,0.01024 1.85215,0.199415 5.0293,0.239056 9.4103,0.117412 l 6.61407,-0.183647 0.27367,0.719803 c 0.15052,0.395892 0.27367,1.673283 0.27367,2.838647 0,1.84745 -0.0573,2.107805 -0.44746,2.03267 -0.2901,-0.05587 -0.6106,-0.635734 -0.91138,-1.648933 -0.71905,-2.422209 -0.64742,-2.390635 -5.66805,-2.498201 -3.17394,-0.068 -4.46889,-0.0051 -4.75319,0.230834 -0.32545,0.270105 -0.39075,1.424244 -0.39075,6.906486 v 6.582186 l 4.56406,0.0041 c 2.51023,0.0022 4.73024,0.109274 4.93335,0.23788 0.2031,0.128606 0.2972,0.421672 0.2091,0.651258 -0.13609,0.35464 -0.86822,0.428305 -4.8672,0.489724 l -4.70702,0.07229 -0.0707,6.503336 c -0.0689,6.337651 -0.0564,6.516283 0.49092,7.011459 0.51072,0.462093 0.99647,0.507818 5.36234,0.504764 3.35994,-0.0023 4.97701,-0.10312 5.38807,-0.335766 0.39096,-0.221266 0.74958,-0.883336 1.07258,-1.980137 0.33735,-1.145541 0.63198,-1.675987 0.96671,-1.740449 0.44388,-0.08548 0.473,0.100285 0.37316,2.380369 -0.0596,1.3602 -0.20036,2.621919 -0.31288,2.80382 -0.14518,0.234693 -0.94914,0.313745 -2.76866,0.272238 -1.41024,-0.03217 -5.24298,-0.121468 -8.5172,-0.198438 z m 95.67022,0.03011 c -0.099,-0.160227 -1.30595,-3.055161 -2.68204,-6.433185 -1.37609,-3.378024 -2.65052,-6.236181 -2.83206,-6.35146 -0.18154,-0.115278 -2.78604,-0.21142 -5.78778,-0.213648 -4.66111,-0.0035 -5.50849,0.05714 -5.80563,0.415165 -0.19135,0.23057 -1.43292,3.058304 -2.75903,6.283855 l -2.4111,5.864637 -1.30827,-0.02126 c -0.71955,-0.01169 -3.39186,-0.168148 -5.93847,-0.347681 -2.54662,-0.179534 -7.69769,-0.300574 -11.44683,-0.268978 -3.74915,0.0316 -6.88574,-0.01167 -6.97022,-0.09614 -0.0845,-0.08447 4.10322,-6.383245 9.30598,-13.997267 5.20275,-7.614022 9.5141,-14.052037 9.58075,-14.306698 0.11341,-0.433269 -0.38174,-0.463021 -7.70589,-0.463021 -6.78242,0 -7.95144,0.0593 -8.75879,0.444295 -0.51243,0.244362 -1.0004,0.375591 -1.08437,0.291619 -0.17574,-0.175742 0.099,-1.83932 0.36473,-2.208282 0.10825,-0.150317 4.43567,-0.195503 11.02609,-0.115132 10.81918,0.131941 10.84813,0.133785 10.92831,0.695832 0.0548,0.384202 -2.83307,4.827234 -9.07467,13.961503 -5.03528,7.368879 -9.09457,13.495833 -9.02064,13.615451 0.0739,0.119619 2.9669,0.302347 6.42883,0.406062 3.46194,0.103715 7.48505,0.28836 8.94026,0.410323 1.89531,0.158848 2.73101,0.136137 2.94612,-0.08006 0.55338,-0.556188 11.47367,-26.185747 11.47367,-26.928329 0,-0.403129 -0.14206,-1.044747 -0.31569,-1.425818 -0.25722,-0.564555 -0.24498,-0.740879 0.0662,-0.952199 0.36813,-0.250036 3.32796,-0.152117 3.59915,0.119069 0.13141,0.131411 12.67006,30.348895 12.92828,31.15647 0.0737,0.230408 -0.0166,0.426524 -0.20062,0.435813 -0.18401,0.0093 -1.00318,0.103176 -1.82037,0.208639 -0.99111,0.127908 -1.54575,0.09476 -1.66585,-0.09957 z m -6.24105,-14.794445 c 0,-0.844705 -4.4341,-11.569359 -4.78334,-11.569359 -0.39806,0 -5.33471,11.223951 -5.14947,11.707813 0.095,0.248131 1.35116,0.330729 5.02971,0.330729 4.51776,0 4.9031,-0.03687 4.9031,-0.469183 z m -136.06198,14.605649 c -0.10914,-0.110958 -0.19844,-6.789868 -0.19844,-14.842021 0,-14.287501 -0.0128,-14.65303 -0.52916,-15.169445 -0.29105,-0.291042 -0.87662,-0.529167 -1.30128,-0.529167 -1.12937,0 -1.60914,-0.253104 -1.60914,-0.84891 0,-0.499419 0.10285,-0.515633 1.91823,-0.302422 1.05503,0.12391 4.17756,0.190104 6.93896,0.147099 6.73504,-0.104889 8.3745,0.306354 10.99568,2.758162 3.26457,3.053622 3.30555,8.408945 0.0917,11.983518 -2.65931,2.9578 -8.21665,4.262212 -10.83884,2.544082 -0.68328,-0.4477 -0.74034,-1.158962 -0.0768,-0.957558 0.20009,0.06074 1.23431,0.163415 2.29828,0.228177 3.26436,0.198696 5.52445,-1.054486 6.65928,-3.69246 0.51172,-1.189515 0.57758,-1.730316 0.49206,-4.040455 -0.0862,-2.327577 -0.19093,-2.824457 -0.82298,-3.902972 -0.82077,-1.40054 -1.76176,-2.157062 -3.41671,-2.74691 -1.62478,-0.579093 -5.30949,-0.966986 -6.15002,-0.647418 l -0.68049,0.25872 -0.004,14.492487 c -0.002,8.187064 -0.10826,14.657152 -0.24356,14.870957 -0.2612,0.412762 -3.18321,0.74168 -3.5227,0.396536 z m 25.62675,-0.26748 c -0.0883,-0.230183 -0.1606,-6.883104 -0.1606,-14.78427 0,-15.978081 0.13919,-14.803817 -1.82121,-15.364478 -0.52399,-0.149858 -0.98872,-0.459452 -1.03273,-0.687987 -0.0705,-0.366177 0.49475,-0.412368 4.76039,-0.388989 3.95887,0.0217 4.84042,0.09396 4.84042,0.396779 0,0.203638 -0.47625,0.533376 -1.05833,0.732752 -0.58209,0.199376 -1.20716,0.561536 -1.38906,0.804799 -0.2551,0.341153 -0.33073,3.729732 -0.33073,14.818068 v 14.375772 l -0.67869,0.258034 c -1.10054,0.418428 -2.94358,0.323916 -3.12946,-0.16048 z m 39.65307,0.08779 c -0.067,-0.181901 -0.15255,-6.918581 -0.19013,-14.970399 -0.066,-14.144535 -0.0857,-14.652367 -0.58193,-15.015104 -0.28247,-0.20649 -0.88479,-0.375436 -1.33849,-0.375436 -1.00443,0 -1.88409,-0.57843 -1.59385,-1.048054 0.15935,-0.25784 0.97271,-0.290843 3.54615,-0.143886 1.83665,0.104882 3.51796,0.286965 3.73624,0.404628 0.21828,0.117663 4.38547,5.758614 9.26042,12.535446 4.87495,6.776832 9.01601,12.323187 9.20235,12.325232 0.27134,0.003 0.32403,-2.282815 0.26459,-11.478116 -0.0702,-10.862002 -0.10144,-11.511888 -0.57826,-12.038542 -0.29238,-0.322942 -0.82741,-0.556708 -1.27416,-0.556708 -0.93413,0 -1.79369,-0.425188 -1.79369,-0.887264 0,-0.474267 9.03896,-0.438588 9.19725,0.0363 0.12164,0.364901 -0.98558,0.85096 -1.93843,0.85096 -0.35433,0 -0.88236,0.238125 -1.1734,0.529167 -0.51633,0.51633 -0.52917,0.881944 -0.52917,15.071941 0,19.973557 1.06079,19.823434 -12.23133,1.730983 -5.34479,-7.275007 -9.8394,-13.26782 -9.98802,-13.317362 -0.18147,-0.06049 -0.27023,4.169498 -0.27023,12.877658 0,11.436071 -0.0491,13.016842 -0.41577,13.383507 -0.49939,0.499382 -1.14218,0.541108 -1.31014,0.08505 z"
         id="path1" /></g></g></svg>
